<?xml version="1.0" encoding="utf-8"?>
<!-- Generator: Adobe Illustrator 16.0.0, SVG Export Plug-In . SVG Version: 6.00 Build 0)  -->
<!DOCTYPE svg PUBLIC "-//W3C//DTD SVG 1.1//EN" "http://www.w3.org/Graphics/SVG/1.1/DTD/svg11.dtd">
<svg version="1.1" id="Layer_1" xmlns="http://www.w3.org/2000/svg" xmlns:xlink="http://www.w3.org/1999/xlink" x="0px" y="0px"
	 width="941.283px" height="1614.976px" viewBox="0 0 941.283 1614.976" enable-background="new 0 0 941.283 1614.976"
	 xml:space="preserve">
<g id="IronDawn">
	<path fill="none" stroke="#3D3B3C" stroke-width="39.5951" stroke-miterlimit="10" d="M400.312,138.793"/>
	<g>
		<path fill="none" d="M188.98,1468.939C127.248,1512.911,68.198,1561.381,0,1614.976V1685h941.283v-90.068
			c-49.549-40.958-95.106-78.98-142.039-114.848C555.836,1293.935,438.033,1291.535,188.98,1468.939z"/>
		<path fill="#B44B4D" d="M0,0v1369.016c21.243-5.402,35.814-25.087,54.068-38.646c113.337-83.973,227.873-168.249,361.453-207.986
			c168.194-49.979,290.479,66.04,421.282,149.861c38.027,24.333,63.838,69.361,104.48,88.913V0H0z"/>
		<path fill="#63361B" d="M836.803,1272.244C706,1188.423,583.715,1072.403,415.521,1122.383
			c-133.58,39.737-248.116,124.014-361.453,207.986c-18.253,13.56-32.825,33.244-54.068,38.646v245.96
			c68.198-53.595,127.248-102.064,188.98-146.036c249.053-177.404,366.856-175.005,610.264,11.145
			c46.933,35.867,92.49,73.89,142.039,114.848v-233.774C900.641,1341.605,874.83,1296.577,836.803,1272.244z"/>
	</g>
</g>
<g>
	<polygon fill="#939598" points="419.933,493.701 468.142,358.053 516.403,493.68 646.402,431.848 584.629,561.878 720.277,610.084 
		584.652,658.347 646.484,788.35 516.451,726.575 468.248,862.221 419.984,726.596 289.979,788.427 351.755,658.398 
		216.106,610.192 351.734,561.928 289.907,431.924 	"/>
	<path fill="#58595B" d="M419.933,493.701l43.498-137.322l4.708-14.863l4.714,14.861l43.551,137.303l0,0l127.852-66.347
		l13.839-7.182l-7.175,13.843l-66.29,127.885l0,0l137.322,43.494l14.864,4.708l-14.862,4.714l-137.301,43.553l0,0L651,786.202
		l7.182,13.839l-13.843-7.175l-127.888-66.291l0,0l-43.492,137.32l-4.707,14.864l-4.715-14.862l-43.553-137.301l0,0l-127.857,66.346
		l-13.839,7.182l7.176-13.842l66.292-127.883l0,0l-137.323-43.495l-14.864-4.708l14.862-4.714l137.304-43.554l0,0l-66.342-127.856
		l-7.181-13.839l13.842,7.176L419.933,493.701z M419.933,493.701L287.762,436.44l6.661-6.664l57.311,132.151l0,0l-133.951,52.975
		l-0.002-9.422l133.974,52.917l0,0l-57.259,132.174l-6.664-6.661l132.152-57.315l0,0l52.975,133.948l-9.422,0.003l52.914-133.972
		l0,0l132.179,57.259l-6.661,6.664l-57.316-132.15l0,0l133.948-52.974l0.003,9.422l-133.975-52.917l0,0l57.257-132.176l6.664,6.661
		L516.403,493.68l0,0l-52.973-133.95l9.422-0.002L419.933,493.701z"/>
</g>
<g>
	<polygon fill="#A7A9AC" points="468.879,610.289 587.117,659.471 468.879,610.289 517.709,728.672 468.879,610.289 
		419.696,728.526 468.879,610.289 350.492,659.118 468.879,610.289 350.635,561.102 468.879,610.289 420.047,491.901 
		468.879,610.289 518.062,492.047 468.879,610.289 587.264,561.456 	"/>
	<path fill="#A7A9AC" d="M473.926,610.297l113.229,49.084l-0.074,0.179l-118.969-47.425l2.616-2.609l46.981,119.146L467.03,611.051
		l3.695,0.005l-51.03,117.469l47.336-119.005l2.609,2.617l-119.149,46.98l117.624-50.679l-0.006,3.696l-117.475-51.033
		l119.011,47.34l-2.616,2.609l-46.983-119.15l50.68,117.625l-3.695-0.005l51.029-117.473l-47.336,119.009l-2.609-2.617
		l119.096-47.109l0.104,0.252L473.926,610.297z M463.46,610.281l123.752-48.951l0.104,0.252l-117.674,50.555l-4.605,1.979
		l1.996-4.596l51.029-117.473l-47.336,119.009l-1.854,4.663l-1.841-4.668l-46.983-119.15l50.68,117.625l1.986,4.609l-4.604-2
		l-117.475-51.033l119.011,47.34l4.663,1.855l-4.668,1.841l-119.149,46.98l117.624-50.679l4.608-1.985l-1.999,4.603l-51.03,117.469
		l47.336-119.005l1.854-4.663l1.841,4.668l46.981,119.146L467.03,611.051l-1.983-4.604l4.601,1.994l117.507,50.939l-0.074,0.179
		L463.46,610.281z"/>
</g>
<g>
	<polygon fill="#808285" points="468.879,610.286 630.879,446.745 468.879,610.286 699.074,609.197 468.879,610.286 
		632.418,772.289 468.879,610.286 469.968,840.483 468.879,610.286 306.871,773.83 468.879,610.286 238.683,611.375 
		468.879,610.286 305.335,448.281 468.879,610.286 467.787,380.092 	"/>
	<path fill="#58595B" d="M468.879,610.286l40.43-40.955c13.418-13.71,26.898-27.358,40.264-41.119l20.073-20.618l20.016-20.675
		l19.944-20.746l19.853-20.835l2.842,2.815L468.879,610.286L468.879,610.286l230.186-3.089l0.02,4L468.879,610.286L468.879,610.286
		l164.946,160.583l-2.814,2.842l-20.053-20.644l-20.142-20.554l-20.211-20.484L550.339,691.6
		c-13.497-13.632-27.101-27.158-40.65-40.737l-20.399-20.293l-10.205-10.142l-5.102-5.071l-2.552-2.536l-1.275-1.268l-0.638-0.634
		l-0.159-0.159c-0.048-0.059-0.117-0.095-0.271-0.047c-0.272,0.063-0.787,0.369-1.616,0.993l3.407-1.43l-0.846,0.454
		c-0.168,0.076-0.223,0.151-0.304,0.226l-0.237,0.226c-0.371,0.301-0.512,0.602-0.575,0.902c-0.057,0.6-0.009,1.199-0.019,1.799
		l0.022,3.597l0.046,7.193l0.092,14.387l0.193,28.774c0.205,19.183,0.327,38.366,0.605,57.548l0.386,28.773l0.466,28.773
		l0.565,28.772l0.693,28.772l-4,0.019L468.879,610.286L468.879,610.286L308.292,775.237l-2.842-2.815L468.879,610.286
		L468.879,610.286l-230.186,3.089l-0.019-4L468.879,610.286L468.879,610.286L303.928,449.702l2.815-2.842L468.879,610.286
		L468.879,610.286l-3.092-230.184l4-0.019L468.879,610.286z M468.879,610.286l-3.092-230.184l4-0.019L468.879,610.286
		L468.879,610.286L303.928,449.702l2.815-2.842L468.879,610.286L468.879,610.286l-230.186,3.089l-0.019-4L468.879,610.286
		L468.879,610.286L308.292,775.237l-2.842-2.815L468.879,610.286L468.879,610.286l3.089,230.188l-4,0.019l0.421-28.777l0.294-28.776
		l0.193-28.776l0.113-28.776c0.097-19.184,0.037-38.367,0.061-57.551l-0.079-28.775l-0.044-14.387l-0.022-7.194l-0.011-3.597
		c-0.016-0.6,0.026-1.199-0.036-1.798c-0.066-0.3-0.209-0.599-0.583-0.896l-0.239-0.224c-0.083-0.075-0.138-0.149-0.307-0.224
		l-0.85-0.445l3.407-1.43c-0.616,0.835-0.918,1.352-0.978,1.626c-0.047,0.153-0.01,0.222,0.05,0.269l0.16,0.158l0.64,0.632
		l1.279,1.264l2.56,2.527l5.119,5.054l10.237,10.108l20.485,20.208c13.706,13.421,27.36,26.896,41.119,40.264l20.618,20.073
		l20.674,20.017l20.743,19.947l20.832,19.856l-2.814,2.842L468.879,610.286L468.879,610.286l230.186-3.089l0.02,4L468.879,610.286
		L468.879,610.286l160.579-164.948l2.842,2.815l-20.647,20.049l-20.556,20.14l-20.484,20.21l-20.427,20.267
		c-13.635,13.496-27.154,27.104-40.736,40.651L468.879,610.286z"/>
</g>
</svg>
