<?xml version="1.0" encoding="utf-8"?>
<!-- Generator: Adobe Illustrator 16.0.0, SVG Export Plug-In . SVG Version: 6.00 Build 0)  -->
<!DOCTYPE svg PUBLIC "-//W3C//DTD SVG 1.1//EN" "http://www.w3.org/Graphics/SVG/1.1/DTD/svg11.dtd">
<svg version="1.1" xmlns="http://www.w3.org/2000/svg" xmlns:xlink="http://www.w3.org/1999/xlink" x="0px" y="0px" width="432px"
	 height="399.207px" viewBox="0 0 432 399.207" enable-background="new 0 0 432 399.207" xml:space="preserve">
<g id="Layer_4" display="none">
	<rect y="-142.979" display="inline" fill-rule="evenodd" clip-rule="evenodd" width="432" height="576"/>
</g>
<g id="Dark_Red">
	<g>
		<path fill="#9E2F27" d="M183.433,348.454c0,0.013,0.007,0.026,0.013,0.039c0.007,0,0.013,0.007,0.019,0.007
			c0-0.007-0.006-0.007-0.006-0.014C183.452,348.474,183.445,348.467,183.433,348.454z"/>
		<path fill="#9E2F27" d="M183.464,348.5c-0.006,0-0.012-0.007-0.019-0.007c-0.006-0.013-0.013-0.026-0.013-0.039
			c-0.147-0.205-0.078-0.258,0,0c0.013,0.013,0.02,0.02,0.025,0.032C183.458,348.493,183.464,348.493,183.464,348.5
			c2.114,0.527,4.441,1.822,5.22-1.766c1.341-6.23,4.929-11.212,9.588-15.232c1.097-0.948,2.205-1.898,3.286-2.872
			c-0.421,0.194-0.838,0.393-1.262,0.585c-0.625,0.282-1.253,0.565-1.88,0.849c-4.667,4.856-9.071,9.63-11.015,16.388
			c-0.193,0.656-0.348,1.751-1.309,1.488c-1.738-0.478-3.021-1.655-3.383-3.512c-0.289-1.463,0.007-2.912,1.443-3.602
			c2.288-1.103,1.85,1.591,2.868,2.429c0.94-2.216-0.025-3.479-1.837-4.189c-1.867-0.727-3.188,0.389-4,1.844
			c-1.528,2.746-0.678,5.407,0.792,7.898c1.037,1.748,2.287,3.364,3.299,5.124c1.536,2.66,2.533,5.625,3.813,8.434
			c0.26-0.522,0.524-1.04,0.8-1.551C188.188,356.485,185.963,352.422,183.464,348.5z"/>
		<path fill="#9E2F27" d="M195.7,342.23c5.913-10.053,14.291-14.543,21.107-15.367c2.779-0.334,5.548-0.447,8.285-0.024
			c0.396-0.324,0.789-0.652,1.183-0.98c-9.249-1.696-16.934,0.739-24.634,6.811c-2.398,2.104-3.923,3.602-4.646,4.755
			c-4.865,6.745-5.714,11.62-4.249,18.694c0.299-0.438,0.603-0.874,0.914-1.305C192.993,350.793,193.582,346.43,195.7,342.23z"/>
		<path fill="#9E2F27" d="M180.057,379.498c1.311,0.066,2.473-0.114,3.548-0.427c0.127-0.528,0.255-1.057,0.386-1.584
			C182.711,378.14,181.446,378.786,180.057,379.498z"/>
		<path fill="#9E2F27" d="M284.42,301.946c-0.232,0.198-0.448,0.408-0.676,0.608c-0.078,0.641-0.161,1.281-0.247,1.92
			C283.93,303.729,284.256,302.901,284.42,301.946z"/>
		<path fill="#9E2F27" d="M182.975,370.716c-2.068-0.973-3.504-2.642-3.724-4.91c-0.18-1.797,0.573-3.434,2.687-3.749
			c1.772-0.265,3.512-0.18,4.259,1.906c0.781,2.185-1.661,1.45-2.397,2.294c1.303,1.251,2.45,1.206,3.449-0.02
			c0.096-0.116,0.177-0.235,0.253-0.354c0.123-0.309,0.262-0.605,0.391-0.909c0.175-0.768-0.006-1.561-0.516-2.318
			c-1.225-1.811-2.899-2.88-5.167-2.532c-2.41,0.367-4.137,1.502-4.588,4.169c-0.657,3.918,1.611,7.886,5.561,9.42
			c0.525,0.205,1.064,0.4,1.626,0.599c0.255-0.956,0.522-1.908,0.803-2.855C184.63,371.313,183.729,371.069,182.975,370.716z"/>
		<path fill="#9E2F27" d="M322.071,315.449c-0.024,0.045-0.05,0.093-0.074,0.139c-3.416,6.152-8.835,9.639-13.789,10.778
			c-5.94,0.529-5.8-3.466-7.526-5.419c-1.404-1.591-0.605-3.865,0.027-5.792c0.097-0.303,0.676-0.656,1.01-0.645
			c3.863,0.21,6.93-1.556,9.955-3.404c-0.323-0.303-0.635-0.621-0.932-0.954c-1.724,1.091-3.573,2.08-5.949,2.232
			c1.367-1.998,4.317-2.429,3.479-5.284c-1.933,1.656-3.847,3.325-5.806,4.949c-1.359,1.127-2.022,0.735-2.1-0.998
			c-0.31-7.037-0.504-14.065,0.431-21.07c0.31-2.28,1.206-3.711,3.827-2.738c-1.229-2.178-2.597-2.397-3.886-0.516
			c-0.849,1.238-1.25,2.712-1.327,4.227c-0.265,4.884-0.908,9.755-0.682,14.672c0.051,1.043-0.148,2.119-0.374,3.151
			c-0.884,3.969-0.91,3.969-4.73,2.634c-3.755-1.3-7.718,0.228-9.001,5.832c-0.47,2.052-1.584,3.692-2.513,5.477
			c-0.296,0.566-0.4,1.321-1.257,1.083c-0.799-0.22-0.676-0.979-0.702-1.599c-0.035-0.782,0.085-1.607-0.079-2.348
			c-0.627,1.899-1.338,3.774-2.149,5.621c-0.276,0.845-0.589,1.681-0.908,2.514c-0.203,0.531-0.46,0.852-0.767,0.984
			c-0.055,0.102-0.104,0.205-0.157,0.308c-0.65,1.229-1.355,2.389-2.091,3.506c0.15,0.925-0.198,1.813-0.923,2.901
			c-1.998,3-2.625,4.024-4.028,3.248c-0.556,0.563-1.124,1.106-1.708,1.63c1.052,2.119,0.306,3.822-2.093,5.277
			c-0.799,0.488-1.521,1.114-2.514,1.849c-0.449-1.152-0.481-2.24-0.42-3.284c-1.967,1.284-4.046,2.418-6.228,3.409
			c0.129,5.398-2.155,8.866-7.494,11.011c-2.887,1.159-5.702,2.422-8.743,3.119c-1.096,0.25-2.313,0.25-3.287,1.507
			c1.251,0.65,2.347,0.052,3.422,0.02c2.242-0.063,4.504-0.534,6.72,0.129c2.469,0.74,3.132,2.339,1.508,4.304
			c-5.515,6.683-19.065,10.985-27.429,6.186c-2.635-1.508-4.265-3.866-5.188-6.714c-0.683-2.1,0.079-3.789,1.741-5.11
			c1.262-1.01,2.732-1.352,4.22-0.675c1.146,0.515,1.655,1.559,1.694,2.874c0.07,2.041-1.482,2.26-2.971,2.718
			c2.01,1.225,3.628,0.923,4.517-1.185c1.406-3.338-0.656-5.825-6.037-7.385c0.153-0.218,0.313-0.417,0.474-0.616
			c-4.567,1.297-8.859,2.967-12.835,5.065c-0.935,0.782-1.877,1.555-2.846,2.302c-0.976,0.753-1.777,1.051-2.547,0.948
			c-4.108,2.797-7.806,6.145-11.052,10.091c3.914-1.341,8-2.64,12.098-1.696c2.771,0.638,5.489,1.688,8.317,2.262
			c0.723,0.141,1.734,0.071,1.863,0.94c0.31,1.991-0.671,3.59-2.248,4.64c-1.599,1.063-3.441,1.334-5.071,0.025
			c-0.928-0.747-0.896-2.038,0.161-2.474c2.313-0.951,2.602,1.391,2.602,1.391s-0.052-2.527-1.578-2.764
			c-1.689-0.262-2.934,0.477-3.343,2.475c-0.211,1.026,0.862,2.898,2.377,3.332c4.098,1.171,7.849-0.368,10.792-2.79
			c3.408-2.811,7.023-3.576,11.199-3.668c8.989-0.192,17.255-2.803,24.787-7.814c1.418-0.948,3.055-3.171,4.517-2.204
			c1.282,0.85,0.414,3.408,0.156,5.161c-0.794,5.231-1.74,10.438-2.771,16.515c2.068-1.952,2.428-3.848,3.021-5.58
			c2.108-6.226,2.746-12.758,3.81-19.195c0.199-1.217,0.521-2.248,1.416-3.117c3.951-3.821,7.307-8.113,10.143-12.811
			c0.709-1.172,1.244-1.372,2.513-0.618c4.573,2.707,9.554,4.201,14.858,4.768c1.797,0.193,3.537,0.876,5.74,1.449
			c-5.22,3.944-10.65,2.655-15.934,2.34c7.938,4.574,18.628,3.37,25.103-2.745c2.578-2.436,5.491-4.188,9.33-6.178
			c-1.152,2.77-1.998,4.807-2.849,6.843c6.8-5.104,9.77-12.771,13.641-19.904c1.908,2.441,0.231,4.974,1.232,8.054
			c2.654-8.176,3.177-15.812,3.602-23.473c0.997-0.006,1.01,1.295,2.165,0.954c0.187-1.771,0.118-3.594-0.112-5.438
			C328.325,315.657,325.191,315.815,322.071,315.449z M207.428,369.117c-0.876,0.04-2.063,0.522-2.494-0.586
			c-0.45-1.186,0.96-1.609,1.565-1.951c2.275-1.276,3.661-3.731,6.56-4.756C212.138,365.311,211.894,368.919,207.428,369.117z
			 M277.396,341.232c1.018,1.842,1.862,3.368,2.789,5.063C275.424,345.438,274.992,344.698,277.396,341.232z M292.55,312.462
			c2.417,0.695,3.97,2.481,4.8,4.787c0.361,1,0.845,2.385-1.346,2.134c-4.419-0.51-8.338,0.778-11.851,4.104
			C286.345,313.235,289.497,311.579,292.55,312.462z M318.228,331.696c-2.479,3.587-6.444,4.71-10.568,6.185
			c1.36,0.78,3.088,0.059,3.57,1.701c0.521,1.766-0.824,2.81-1.829,3.827c-6.199,6.308-16.03,6.539-22.649,0.722
			c-3.736-3.286-4.181-7.474-3.002-11.752c1.347-4.917,4.91-7.99,9.975-8.905c2.99-0.54,4.086,0.8,4.477,4.813
			c1.033-0.128,0.993-1.288,1.683-1.739c0.923,0.032,0.856,0.9,1.031,1.411c1.72,4.967-1.56,9.709-6.096,8.833
			c-1.849-0.36-3.047-1.47-3.111-3.492c-0.027-0.87-0.02-1.952,0.998-2.094c1.307-0.187,0.657,0.94,0.76,1.572
			c0.207,1.301,0.915,0.935,1.534,0.349c0.722-0.672,1.327-1.445,0.864-2.54c-0.466-1.089-1.238-1.663-2.481-1.655
			c-2.682,0.025-4.813,3.15-4.027,6.128c0.716,2.711,2.525,4.548,5.257,5.045c3.056,0.561,6.058-0.381,7.688-2.932
			c1.502-2.359,3.356-4.962,2.172-8.525c4.13,1.024,7.848,0.348,11.565-0.521c1.05-0.246,2.267-0.451,2.924,0.656
			C319.599,329.853,318.826,330.832,318.228,331.696z"/>
		<path fill="#9E2F27" d="M332.525,282.411c-1.437-1.471-7.392-9.459-10.325-15.222c-0.014,0.576-0.033,1.153-0.056,1.729
			c0.233,0.524,0.494,1.042,0.754,1.565c2.318,4.677,6.469,8.131,8.518,13.002c1.973,4.697,4.145,9.305,3.139,15.006
			c-0.477-0.805-0.748-1.25-1.005-1.706c-0.992-1.792-2.576-2.211-4.39-1.701c-1.81,0.51-1.513,2.151-1.462,3.492
			c0.091,2.757-0.374,5.547,0.563,8.272c0.25,0.741,0.423,1.824-0.705,2.159c-0.779,0.232-1.599,0.315-2.375-0.081
			c1.615,1.495,3.609,2.642,5.881,3.512c-0.891-4.403-2.407-8.696-2.442-13.257c-0.012-1.16-0.121-2.52,1.407-2.854
			c1.39-0.303,2.259,0.709,2.73,1.79c0.955,2.167,1.335,4.498,1.528,6.863c0.275,3.318,0.978,6.494,3.702,8.873
			c-2.821-9.047-0.068-18.725-3.734-27.558c0.51-0.187,1.669-0.067,3.152,0.229c-0.153-0.632-0.295-1.266-0.438-1.899
			C334.742,283.712,333.017,282.91,332.525,282.411z"/>
	</g>
</g>
<g id="Red">
	<g>
		<path fill="#D3492B" d="M308.302,307.127l-0.027-0.023c0.836,2.854-2.118,3.283-3.483,5.284c2.378-0.153,4.229-1.143,5.952-2.233
			c-0.868-0.971-1.623-2.065-2.266-3.276C308.419,306.962,308.36,307.044,308.302,307.127z"/>
		<path fill="#D3492B" d="M227.514,278.662c-0.151,2.994-1.946,4.916-4.382,5.797c-2.504,0.906-5.13,0.168-7.069-1.886
			c-0.99-1.049-1.558-2.334-0.764-3.817c0.069-0.128,0.151-0.235,0.23-0.349c-0.933-0.013-1.861-0.035-2.785-0.079
			c-0.336,1.019-0.383,2.15-0.025,3.242c1,3.045,4.153,5.449,7.576,6.244c2.053-0.134,4.103-0.319,6.151-0.54
			c3.753-1.735,5.878-5.888,5.117-10.253c-1.336,0.256-2.688,0.467-4.046,0.655C227.526,278.001,227.531,278.327,227.514,278.662z"
			/>
		<path fill="#D3492B" d="M270.808,230.854c0.396-0.274,0.78-0.419,1.157-0.47l1.575-1.013c-1.187-0.346-2.442-0.278-3.774,0.446
			c-1.511,0.823-1.974,1.992-2.022,3.281l2.172-1.397C270.15,231.396,270.44,231.11,270.808,230.854z"/>
		<path fill="#D3492B" d="M204.336,260.065c0.405-1.41,1.24-2.703,2.149-4.501c-0.045-0.048-0.091-0.094-0.137-0.141
			c-0.632,0.341-0.899,0.457-1.094,0.618c-1.309,1.068-2.234,2.33-2.957,3.697c0.571,0.481,1.145,0.961,1.72,1.436
			C204.116,260.788,204.236,260.409,204.336,260.065z"/>
		<path fill="#D3492B" d="M291.931,233.014c-1.014-0.253-1.99-0.554-2.943-0.888c-1.414,3.023-3.006,5.948-4.774,8.755
			c2.096,3.522,3.327,7.492,3.893,11.808c5.896-7.867,10.49-16.854,13.795-26.955c-0.877-0.774-1.741-1.566-2.586-2.394
			c-1.522-1.492-3.785-3.14-2.703-5.521c-1.214,0.813-1.269,3.257,0.277,4.941c3.282,3.58-0.526,10.008-4.604,7.021
			c-0.537-0.572-1.046-1.119-1.544-1.654c-0.281,0.7-0.581,1.39-0.882,2.079C290.55,231.142,291.239,232.077,291.931,233.014z"/>
		<path fill="#D3492B" d="M320.908,300.332c0.473,3.706,2.001,6.496,4.274,8.599c0.772,0.393,1.595,0.308,2.373,0.077
			c1.128-0.333,0.957-1.419,0.703-2.159c-0.935-2.724-0.468-5.515-0.563-8.274c-0.045-1.337-0.344-2.979,1.466-3.489
			c1.808-0.511,3.396-0.089,4.388,1.7c0.255,0.459,0.53,0.905,1.003,1.709c1.004-5.702-1.168-10.309-3.139-15.005
			c-2.047-4.874-6.197-8.327-8.518-13.006c-0.26-0.523-0.52-1.042-0.752-1.565c-0.262,7.059-1.077,14.102-1.508,21.159
			C320.423,293.479,320.471,296.949,320.908,300.332z"/>
		<path fill="#D3492B" d="M278.203,225.781c-0.938-0.8-1.921-1.543-3.228-1.751c0.062,1.473,0.841,2.29,1.79,2.95
			c0-0.001,0.001-0.001,0.001-0.001C277.256,226.592,277.729,226.185,278.203,225.781z"/>
		<path fill="#D3492B" d="M198.732,276.411c-2.806-0.637-5.556-1.408-8.236-2.328c0.083,0.452,0.177,0.906,0.28,1.362
			c0.537,2.362,0.759,4.66,0.194,6.995c-0.215,0.888-0.45,1.548-0.728,1.999c1.627,0.499,3.265,0.961,4.924,1.357
			C195.561,282.375,196.801,279.166,198.732,276.411z"/>
		<path fill="#D3492B" d="M178.856,271.211c0,0-0.203,4.561,1.002,6.617c0.83,1.417,1.588,2.583,2.323,3.682
			c1.364,0.577,2.741,1.112,4.131,1.616C178.694,275.506,178.856,271.211,178.856,271.211z"/>
		<path fill="#D3492B" d="M219.134,280.565c0.81-0.817,1.138-1.547,1.143-2.227c-0.53,0.024-1.061,0.044-1.594,0.056
			C218.884,279.022,218.87,279.852,219.134,280.565z"/>
		<path fill="#D3492B" d="M190.49,296.85c0.17,0.714,0.312,1.441,0.383,2.207c0.253,2.736-0.911,3.581-3.042,4.344
			c-5.126,1.837-9.968,0.785-14.766-0.986c-0.077,0.04-0.154,0.081-0.232,0.122c2.748,1.566,13.753,6.658,21.013,6.746
			C195.09,304.686,193.752,300.088,190.49,296.85z"/>
		<path fill="#D3492B" d="M286.749,270.801c-0.266,1.169-0.534,2.338-0.801,3.506c-0.05,0.431-0.097,0.861-0.145,1.291
			c0,0,0,0,0,0.001c-2.926,3.963-4.056,8.67-5.525,13.288c2.144-2.521,3.714-5.454,6.315-7.511c1.371-1.087,2.863-1.525,4.367-0.256
			c1.646,1.388,0.617,2.716-0.265,3.921c-1.942,2.664-3.946,5.274-6.113,7.745c-0.052,0.893-0.105,1.776-0.165,2.65
			c1.485-1.212,3.038-2.432,4.935-3.29c-1.134,3.979-3.497,6.672-4.894,9.826l-0.041-0.028c-0.164,0.952-0.489,1.778-0.921,2.522
			c-0.715,5.242-1.774,10.399-3.424,15.393c0.163,0.739,0.042,1.562,0.08,2.344c0.028,0.619-0.095,1.38,0.7,1.6
			c0.858,0.235,0.963-0.518,1.256-1.083c0.928-1.783,2.488-3.121,2.846-5.192c0.165-0.96,4.709-7.488,8.671-6.113
			c3.824,1.329,3.847,1.334,4.729-2.639c0.229-1.029,0.427-2.105,0.378-3.147c-0.225-4.917,0.417-9.787,0.68-14.677
			c0.081-1.51,0.479-2.984,1.327-4.226c1.289-1.881,2.658-1.66,3.89,0.518c0.104,0.064,0.525,0.621,0.761,0.938
			c-0.156-2.407-0.35-4.811-0.667-7.195C303.517,271.938,294.683,267.37,286.749,270.801z"/>
		<path fill="#D3492B" d="M197.641,336.777c0.546-0.718,3.08-3.365,4.002-4.11c7.233-5.845,15.366-8.495,24.632-6.808
			c2.175-1.813,4.318-3.66,6.404-5.568c0.711-0.651,1.387-1.32,2.043-1.999c-2.74,0.304-5.539,0.164-8.264-0.584
			c1.938-1.946,4.448-2.815,6.677-4.482c-2.217-0.46-3.967-0.177-5.663,0.593c-1.864,0.846-3.753,1.643-5.597,2.529
			c-2.103,1.703-4.297,3.288-6.569,4.771c-0.002,0.003-0.002,0.004-0.003,0.007c-0.723,1.246-1.816,1.79-3.238,2.012
			c-3.55,2.109-7.262,4.01-11.089,5.763c-0.858,0.9-1.749,1.775-2.704,2.602c-4.66,4.024-8.244,9.004-9.59,15.232
			c-0.776,3.594-3.104,2.295-5.218,1.763c2.495,3.93,4.726,7.987,6.424,12.318c0.877-1.629,1.836-3.196,2.866-4.708
			C191.362,348.923,193.225,342.572,197.641,336.777z"/>
		<path fill="#D3492B" d="M265.709,261.392c-0.637,3.896-1.901,7.702-3.98,11.392c-0.002-0.001-0.058,0.053-0.058,0.053
			c-1.524,1.774-2.937,3.648-4.607,5.536c4.509-2.296,8.725-4.848,12.633-7.664c0.256-2.116,0.702-4.221,1.393-6.312
			c1.544-4.68,2.483-4.982,6.264-2.13c0.253,0.546,0.445,1.105,0.615,1.673c0.738-0.684,1.462-1.383,2.173-2.091
			c-0.251-1.795-0.109-2.555,1.633-1.669c1.494-1.572,2.929-3.195,4.296-4.878c-2.714-1.964-5.388-3.95-7.826-6.164
			C274.521,253.661,270.317,257.772,265.709,261.392z"/>
		<path fill="#D3492B" d="M322.317,252.695c3.336,0.577,6.589,1.132,9.794,1.65c-0.317-1.869-0.676-3.721-1.087-5.553
			c-3.811-1.148-7.6-2.367-11.364-3.677c0.805,2.804,1.434,5.691,1.861,8.681c0.369,2.598,0.567,5.189,0.653,7.778
			c0.486-0.412,1.233-0.375,2.345-0.008c4.243,4.299,5.83,10.602,10.74,14.438c-0.046-0.272-0.088-0.546-0.133-0.817
			C330.318,268.302,328.872,259.547,322.317,252.695z"/>
		<path fill="#D3492B" d="M218.057,267.424c-2.431-2.491-4.878-5.002-7.371-7.557c-0.734,0.715-1.41,1.511-2.002,2.428
			c-0.354,0.546-0.776,1.149-1.282,1.591c0.604,0.472,1.206,0.942,1.818,1.401c1.227,0.919,2.575,1.677,3.977,2.361
			c1.063-0.164,2.158-0.267,3.289-0.293C217.024,267.342,217.545,267.373,218.057,267.424z"/>
		<path fill="#D3492B" d="M328.95,241.354c-0.204-0.602-0.412-1.201-0.637-1.794c-0.841-0.102-1.681-0.194-2.499-0.391
			c-3.467-1.06-6.767-2.401-9.927-3.977c1.062,2.205,1.993,4.47,2.794,6.798C322.091,241.447,325.574,241.798,328.95,241.354z"/>
		<path fill="#D3492B" d="M269.872,292.604c-0.438,1.089-0.759,2.217-1.148,3.345c1.072,0.198,2.002,0.264,2.932,0.099
			c0.006-2.215-0.161-4.428-0.433-6.639C270.759,290.464,270.311,291.53,269.872,292.604z"/>
	</g>
</g>
<g id="Orange">
	<g>
		<path fill="#F59D34" d="M283.221,179.115c0.214-1.44,0.41-2.887,0.616-4.329c-0.003-0.001-0.005-0.002-0.005-0.002
			c-0.465-0.15-0.913-0.319-1.369-0.478c-0.041-0.015-0.082-0.028-0.123-0.043c-0.852,1.6-1.705,3.199-2.56,4.8
			c-0.538,1.009-1.076,2.018-1.613,3.027c1.456,0.137,2.97,0.232,4.515,0.274C282.887,181.29,283.06,180.205,283.221,179.115z"/>
		<path fill="#F59D34" d="M293.34,176.646c0.248,0.872,0.491,1.746,0.711,2.63c0.174,0.7,0.325,1.408,0.481,2.115
			c2.216-0.469,4.401-1.125,6.503-2.012c0.911-0.385,1.973-0.632,3.014-1.043c-0.146-0.65-0.303-1.299-0.464-1.944l0,0
			c-1.027,0.056-2.005,0.195-2.982,0.23C298.182,176.709,295.751,176.775,293.34,176.646z"/>
		<path fill="#F59D34" d="M182.93,144.961L182.93,144.961c0.021,0.248,0.049,0.493,0.061,0.75c0.012,0.23,0.035,0.467,0.068,0.705
			c0.02,0.134,0.05,0.271,0.075,0.407c0.02,0.103,0.036,0.204,0.06,0.308c0.045,0.188,0.101,0.379,0.16,0.569
			c0.015,0.051,0.027,0.1,0.044,0.151c0.073,0.221,0.158,0.443,0.253,0.666c0.008,0.02,0.014,0.037,0.022,0.055
			c0.104,0.241,0.221,0.482,0.352,0.723v0.001c0.399,0.733,0.925,1.459,1.595,2.148l0,0c0.127,0.131,0.246,0.264,0.384,0.393
			c0.019-0.25,0.037-0.484,0.054-0.712l0,0c0.035-0.462,0.067-0.891,0.102-1.329c0.062-0.821,0.127-1.676,0.216-2.847
			c0.336,0.916,0.654,1.811,0.969,2.686c0.044,0.121,0.091,0.249,0.134,0.368c1.538,4.237,3.072,7.968,6.379,11.028
			c0.604-2.305-0.243-4.01-0.344-5.753c-0.096-1.658-0.181-3.317-0.271-4.974c2.374,6.714,4.375,13.295,9.331,19.387
			c0.731-3.136,0.31-5.536,0.051-7.92c-0.778-7.168-1.12-14.328,0.116-21.484c0.273-1.581,0.755-3.042,2.151-4.947
			c-0.113,0.98-0.198,1.964-0.253,2.949v0.002c-0.057,0.982-0.083,1.965-0.084,2.945c-0.004,14.115,5.645,27.778,13.966,31.703
			c-4.551-10.264-5.575-20.398-4.596-31.167l0,0c0-0.003,0.001-0.005,0.001-0.008c0.115-1.263,0.251-2.531,0.419-3.813
			c0.431,0.871,0.595,1.053,0.604,1.244c0.028,0.5,0.075,0.989,0.123,1.477c0.038,0.368,0.08,0.734,0.127,1.096l0,0
			c0.21,1.631,0.512,3.206,0.889,4.729c4.165,16.857,21.418,27.871,21.418,27.871s-2.25-4.668-3.063-6.244
			c-3.378-6.545-5.093-13.354-5.771-20.502c-0.516-5.425-0.437-11.045-0.025-16.896c0.571,1.391,0.955,1.932,1.004,2.499
			c0.039,0.486,0.101,0.967,0.163,1.447c0.056,0.407,0.118,0.813,0.187,1.218l0,0c0.645,3.815,1.894,7.48,3.039,11.163
			c0.113,0.361,0.227,0.722,0.337,1.084c4.51,14.888,13.694,25.689,28.633,30.662c0,0,3.174,1.097,8.026,2.077
			c-0.162-0.655-0.326-1.31-0.489-1.965c-1.059-4.274-2.09-8.555-2.999-12.861c-3.235-2.321-6.252-4.936-9.067-7.816l0,0
			c-0.003-0.003-0.006-0.007-0.009-0.01c-0.811-0.829-1.603-1.684-2.381-2.557c-0.144-0.161-0.285-0.325-0.429-0.487
			c-0.633-0.722-1.256-1.457-1.868-2.206c-0.188-0.23-0.377-0.461-0.563-0.693c-0.572-0.717-1.136-1.446-1.69-2.186
			c-0.182-0.242-0.367-0.48-0.548-0.725c-0.709-0.967-1.407-1.946-2.088-2.949c-0.663-0.976-1.287-1.965-1.886-2.965
			c-10.599,19.652-16.262-18.437-17.771-18.346c-1.717,0.104-1.273,2.118-1.422,3.379c-1.489,12.635-0.938,21.912,1.935,29.533
			c-1.895,1.928-10.658-9.635-12.458-23.597c-0.146-1.14-0.236-2.282-1.669-2.247c-1.199,0.031-1.412,1-1.517,2.064
			c-1.08,10.896-2.222,18.906,1.489,33.478c-3.764-5.492-8.692-18.835-8.11-31.263c0.05-1.077,0.775-2.505-0.753-3.078
			c-1.521-0.568-2.279,0.479-2.929,1.746c-3.356,6.542-2.819,18.784-1.578,29.729c-3.248-5.023-5.038-10.536-6.126-16.304
			c-0.203-1.069-0.21-2.353-1.635-2.357c-1.684-0.005-1.62,1.43-1.641,2.599c-0.04,2.377-0.012,4.754-0.012,7.146
			c-2.067-2.855-2.904-6.263-3.741-9.674c-0.249-1.012-0.286-2.302-1.562-2.577c-1.544-0.335-1.614,1.826-2.056,3.292
			c-0.255-1.585-0.878-4.192-1.05-5.804c-0.046-0.43-0.143-0.851-0.261-1.267L182.93,144.961z"/>
		<path fill="#F59D34" d="M252.343,112.08c4.817,3.057,13.513,7.42,18.765,8.675C266.565,119.604,260.679,115.879,252.343,112.08z"
			/>
		<path fill="#F59D34" d="M284.563,121.563c29.183-8.169,31.107-17.445,31.26-17.935c-0.152,0.489-7.859,11.678-31.211,17.56
			c-3.965,0.999-11.166,0.037-11.63-0.104C274.398,121.466,279.35,121.965,284.563,121.563z"/>
		<path fill="#F59D34" d="M351.884,114.772c0.181-0.014,0.299-0.054,0.334-0.135c-0.066-0.051-0.666-0.532-1.754-1.261l0,0
			C350.936,113.844,351.408,114.309,351.884,114.772z"/>
		<path fill="#F59D34" d="M138.499,261.581c-0.131-0.314-0.27-0.626-0.405-0.938c-0.214-0.49-0.429-0.979-0.654-1.464
			c-0.149-0.324-0.304-0.646-0.458-0.969c-0.228-0.472-0.457-0.941-0.692-1.41c-0.16-0.319-0.32-0.639-0.484-0.956
			c-0.245-0.478-0.494-0.953-0.746-1.427c-0.16-0.302-0.319-0.605-0.482-0.906c-0.278-0.52-0.561-1.037-0.844-1.554
			c-0.143-0.261-0.283-0.521-0.426-0.782c-0.397-0.72-0.796-1.44-1.191-2.16c-0.673-1.221-1.325-2.447-1.97-3.676
			c-0.156-0.299-0.311-0.599-0.466-0.897c-0.618-1.194-1.226-2.392-1.815-3.594c-0.018-0.039-0.037-0.077-0.057-0.115
			c-0.632-1.293-1.243-2.593-1.843-3.896c-0.091-0.198-0.181-0.396-0.271-0.596c-1.211-2.665-2.351-5.353-3.408-8.063
			c-0.025-0.066-0.051-0.133-0.076-0.198c-2.528-6.509-4.602-13.158-6.112-19.979c-0.014-0.059-0.024-0.118-0.037-0.177
			c-0.207-0.939-0.406-1.882-0.592-2.827c-0.198-1.011-0.384-2.025-0.557-3.045c0.064,0.577,0.112,1.126,0.151,1.659
			c1.611,20.685-13.382,13.509-13.811,13.88c2.993,5.526,6.334,10.883,9.803,16.164l0,0c0.021,0.033,0.043,0.066,0.064,0.1
			c0.476,0.724,0.961,1.441,1.451,2.155c0.147,0.213,0.298,0.424,0.445,0.637c0.354,0.508,0.708,1.016,1.068,1.52
			c0.148,0.208,0.299,0.415,0.448,0.622c0.386,0.536,0.773,1.073,1.165,1.606c0.08,0.11,0.162,0.22,0.243,0.331
			c6.07,8.247,12.606,16.19,17.051,25.499c0.002,0.004,0.004,0.007,0.006,0.011l0,0c0.604,1.268,1.183,2.553,1.703,3.877
			c0.484,1.923,0.892,3.827,1.204,5.709c0.038,0.226,0.077,0.452,0.111,0.677c0.03,0.194,0.057,0.388,0.085,0.581
			c0.029,0.208,0.06,0.415,0.087,0.622c0.025,0.193,0.048,0.385,0.071,0.577c0.024,0.207,0.05,0.413,0.071,0.618
			c0.021,0.191,0.039,0.382,0.057,0.574c0.021,0.206,0.038,0.411,0.056,0.617c0.015,0.188,0.03,0.376,0.042,0.563
			c0.015,0.21,0.027,0.42,0.038,0.629c0.01,0.182,0.021,0.364,0.027,0.545c0.009,0.221,0.015,0.44,0.02,0.66
			c0.005,0.167,0.011,0.336,0.012,0.504c0.003,0.271,0.001,0.543-0.001,0.813c-0.002,0.113,0,0.229-0.002,0.343
			c-0.008,0.375-0.022,0.749-0.041,1.121c-0.008,0.141-0.02,0.279-0.028,0.42c-0.016,0.241-0.031,0.481-0.053,0.721
			c-0.014,0.159-0.031,0.315-0.047,0.473c-0.023,0.223-0.047,0.443-0.073,0.665c-0.021,0.16-0.043,0.32-0.064,0.48
			c-0.031,0.218-0.064,0.436-0.1,0.653c-0.026,0.157-0.053,0.314-0.081,0.473c-0.04,0.221-0.084,0.44-0.128,0.659
			c-0.03,0.152-0.062,0.303-0.095,0.453c-0.052,0.235-0.109,0.469-0.169,0.702c-0.032,0.133-0.063,0.266-0.098,0.396
			c-0.083,0.313-0.174,0.624-0.269,0.935c-0.015,0.051-0.028,0.102-0.044,0.152c-0.111,0.358-0.233,0.716-0.361,1.07
			c-0.041,0.113-0.085,0.225-0.128,0.337c-0.092,0.243-0.185,0.486-0.284,0.729c-0.056,0.136-0.115,0.27-0.174,0.404
			c-0.095,0.219-0.19,0.437-0.292,0.654c-0.064,0.14-0.133,0.28-0.201,0.42c-0.103,0.212-0.21,0.422-0.319,0.632
			c-0.073,0.139-0.146,0.277-0.221,0.415c-0.117,0.214-0.238,0.426-0.362,0.637c-0.076,0.131-0.151,0.263-0.23,0.393
			c-0.14,0.229-0.285,0.455-0.432,0.683c-0.072,0.11-0.141,0.221-0.215,0.331c-0.219,0.326-0.445,0.649-0.683,0.971
			c-0.007,0.008-0.013,0.018-0.019,0.026c-0.245,0.332-0.502,0.661-0.768,0.988c-0.08,0.099-0.165,0.196-0.247,0.294
			c-0.188,0.227-0.379,0.453-0.577,0.677c-0.106,0.12-0.217,0.238-0.325,0.358c-0.186,0.202-0.372,0.404-0.566,0.604
			c-0.119,0.124-0.241,0.249-0.364,0.372c-0.193,0.193-0.391,0.388-0.593,0.58c-0.13,0.123-0.26,0.246-0.393,0.369
			c-0.211,0.194-0.426,0.387-0.646,0.579c-0.132,0.116-0.263,0.232-0.398,0.349c-0.243,0.207-0.494,0.413-0.747,0.618
			c-0.121,0.097-0.236,0.194-0.36,0.291c-0.38,0.301-0.769,0.599-1.171,0.893c2.665-0.153,3.68-1.395,4.948-2.091
			c10.123-5.554,13.073-14.916,13.144-25.579c0.002-0.411-0.009-0.822-0.031-1.233c-0.013-0.248-0.037-0.495-0.058-0.742
			c-0.014-0.162-0.022-0.324-0.039-0.486c-0.031-0.313-0.071-0.624-0.11-0.937c-0.014-0.095-0.023-0.189-0.035-0.285
			c-0.052-0.372-0.108-0.744-0.169-1.116c-0.283-1.778-0.644-3.557-0.891-5.335c-0.396-1.78-0.916-3.506-1.524-5.195
			c-0.097-0.272-0.206-0.539-0.309-0.809C138.933,262.666,138.724,262.12,138.499,261.581z M134.978,269.941
			c0.299-0.075,0.597-0.152,0.896-0.228c0,0.001,0.001,0.003,0.001,0.003C135.575,269.791,135.276,269.866,134.978,269.941z"/>
		<path fill="#F59D34" d="M254.643,140.736c0,0,21.121,3.116,13.106-9.422c0,0,0,0,0-0.001
			c-4.716-6.206-11.356-12.466-17.884-20.133c0.018,0.001,0.045,0.016,0.065,0.021c0.607,0.609,3.623,3.584,7.156,7.274
			c0.156,0.081,0.311,0.173,0.466,0.255l0.001,0.001c4.472,4.736,9.942,10.43,13.818,13.079c3.848,2.628,7.9,4.982,12.108,7.138
			l0.001,0.001c0.021,0.011,0.042,0.02,0.062,0.03c1.092,0.559,2.197,1.1,3.309,1.633c0.26,0.124,0.52,0.249,0.78,0.371
			c1.134,0.535,2.272,1.063,3.424,1.575c8.105,3.605,16.726,6.006,24.472,10.426c0.601,0.342,1.191,0.695,1.775,1.054
			c0.251,0.154,0.496,0.313,0.743,0.47c0.318,0.201,0.636,0.404,0.949,0.612c0.32,0.213,0.638,0.431,0.954,0.65
			c0.213,0.148,0.424,0.298,0.635,0.449c0.373,0.269,0.744,0.539,1.109,0.818c0.102,0.078,0.203,0.159,0.305,0.238
			c1.892,1.473,3.664,3.086,5.275,4.89l0,0c0.694,0.779,1.37,1.579,2.003,2.431c-0.647,0.705-1.142,0.337-1.559,0.081
			c-1.325-0.812-2.678-1.517-4.047-2.147l0,0l-0.005-0.003c-2.74-1.261-5.562-2.186-8.444-2.857
			c-0.017-0.004-0.032-0.008-0.048-0.012c-0.463-0.107-0.926-0.209-1.39-0.304c-0.037-0.008-0.074-0.015-0.111-0.021
			c-1.825-0.369-3.673-0.646-5.538-0.851c-0.119-0.014-0.238-0.029-0.358-0.041c-0.34-0.036-0.681-0.067-1.021-0.099
			c-0.219-0.021-0.436-0.04-0.654-0.06c-0.3-0.024-0.601-0.047-0.902-0.07c-0.268-0.019-0.534-0.037-0.802-0.055
			c-0.268-0.017-0.535-0.034-0.803-0.05c-0.327-0.018-0.654-0.033-0.981-0.049c-0.217-0.01-0.434-0.021-0.649-0.03
			c-0.547-0.022-1.096-0.041-1.645-0.056c-0.944-0.026-1.889-0.009-2.824-0.077c-0.03-0.002-0.061-0.005-0.091-0.008
			c-0.301-0.022-0.601-0.055-0.899-0.102l0,0c-0.317-0.05-0.634-0.103-0.947-0.189l-0.566-0.066
			c-3.776,0.039-7.393-0.699-10.952-1.685l0,0c-2.409-0.667-4.794-1.443-7.182-2.181c-0.981-0.304-1.932-0.627-2.871-0.958
			c-0.328-0.116-0.652-0.235-0.976-0.355c-0.605-0.223-1.197-0.456-1.785-0.693c-0.374-0.151-0.754-0.297-1.12-0.454
			c-0.731-0.312-1.444-0.639-2.148-0.974c-0.558-0.267-1.104-0.546-1.645-0.829c-0.2-0.104-0.398-0.21-0.596-0.316
			c-1.885-1.017-3.674-2.132-5.368-3.371c-1.589-1.162-3.096-2.436-4.526-3.828L254.643,140.736z"/>
		<path fill="#F59D34" d="M149.099,198.505c0.916,0.826,1.784,1.634,2.596,2.463c0.014,0.014,0.027,0.028,0.041,0.041
			c0.391,0.4,0.769,0.808,1.133,1.225c0.019,0.021,0.035,0.04,0.053,0.06c1.824,2.097,3.313,4.472,4.398,7.75v-0.001
			c0.002,0.007,0.004,0.014,0.006,0.019c0.301,0.913,0.571,1.896,0.809,2.963c0.004,0.018,0.008,0.033,0.012,0.051
			c0.116,0.529,0.226,1.078,0.326,1.651c0.005,0.025,0.009,0.053,0.014,0.078c0.096,0.549,0.183,1.117,0.264,1.708
			c0.005,0.037,0.011,0.074,0.016,0.112c0.079,0.589,0.149,1.202,0.213,1.835c0.01,0.1,0.02,0.202,0.028,0.304
			c0.058,0.597,0.108,1.21,0.151,1.848c0.004,0.052,0.009,0.103,0.011,0.155c0.044,0.662,0.079,1.354,0.107,2.063
			c0.007,0.162,0.013,0.327,0.019,0.492c0.025,0.724,0.046,1.463,0.057,2.237c0.229-0.769,0.434-1.498,0.626-2.209
			c0.064-0.239,0.122-0.468,0.183-0.7c0.119-0.458,0.232-0.904,0.336-1.337c0.064-0.269,0.127-0.535,0.186-0.795
			c0.084-0.369,0.157-0.723,0.23-1.075c0.057-0.271,0.116-0.551,0.166-0.813c0.054-0.282,0.097-0.547,0.143-0.818
			c0.104-0.606,0.194-1.191,0.265-1.749c0.018-0.135,0.036-0.272,0.053-0.404c0.042-0.358,0.076-0.706,0.104-1.046
			c0.009-0.098,0.016-0.194,0.023-0.291c0.026-0.359,0.051-0.713,0.063-1.052v0.001c0.192-4.796-0.949-7.646-2.131-10.782
			c-0.966-2.56-2.009-4.27-3.085-5.875l0,0c-0.226-0.338-0.453-0.672-0.683-1.008c-0.931-1.366-1.877-2.777-2.812-4.688
			c-0.01-0.02-0.019-0.037-0.028-0.058c-0.167-0.344-0.334-0.7-0.499-1.079c-0.008-0.018-0.016-0.031-0.023-0.049
			c0,0-0.001-0.002-0.002-0.004c0.556,7.784-1.264,7.457-4.443,7.815c0.365,0.324,0.722,0.644,1.072,0.96l0,0
			C149.096,198.503,149.098,198.504,149.099,198.505z"/>
		<path fill="#F59D34" d="M154.301,180.014c-1.281,0.148-2.088,0.588-1.191,2.046c1.604,2.606,2.619,1.333,4.066,5.064
			c0,0,0.016,0.048,0.041,0.121c0.013,0.038,0.03,0.088,0.049,0.145c0.008,0.021,0.014,0.039,0.021,0.062
			c0.033,0.094,0.072,0.207,0.117,0.337c0.006,0.02,0.015,0.042,0.021,0.062c0.04,0.115,0.086,0.244,0.135,0.383
			c0.013,0.035,0.026,0.072,0.04,0.109c0.121,0.344,0.268,0.744,0.433,1.19c0.009,0.024,0.019,0.051,0.028,0.076
			c0.075,0.203,0.154,0.415,0.237,0.632c0.014,0.035,0.026,0.07,0.04,0.105c0.095,0.248,0.192,0.502,0.295,0.764l0,0
			c0.396,1.008,0.845,2.104,1.32,3.156c0.348-2.924,0.305-5.768,0.359-8.609C160.373,182.49,157.408,179.655,154.301,180.014z"/>
		<path fill="#F59D34" d="M267.743,233.099L267.743,233.099c0.049-1.289,0.512-2.458,2.022-3.281
			c1.332-0.725,2.588-0.792,3.774-0.446l0,0c1.1-0.767,2.178-1.561,3.228-2.393l0,0c-0.932-0.65-1.701-1.453-1.784-2.882
			c-0.008,0.001-0.014,0.001-0.021,0.002c0.007-0.001,0.015-0.002,0.021-0.002c0-0.023-0.006-0.043-0.008-0.068l0.022,0.066
			l5.854-0.712c0.666-0.652,1.319-1.324,1.949-2.026c1.4-1.555,2.664-3.218,3.985-4.841c-1.989,0.883-3.901,1.864-5.812,2.852l0,0
			c0.111,0.197,0.155,0.42,0.067,0.69c-0.281,0.857-1.114,0.749-1.864,0.848c-0.492,0.064-0.972,0.098-1.445,0.117l0,0
			c-3.447,1.719-7.027,3.292-11.176,4.193c0.852-2.206,1.675-4.347,2.483-6.451c-1.784-0.997-3.481-2.246-5.164-3.595
			c-8.516-6.827-16.799-13.868-24.327-21.809c-1.279-1.349-1.318-2.059-0.495-1.863c1.121,0.269,2.242,0.612,3.298,1.071
			c10.852,4.701,20.946,10.51,29.796,18.134c0-0.001,0-0.001,0-0.001c0.831-2.147,1.66-4.275,2.498-6.397
			c0.287-0.726,0.583-1.449,0.884-2.171l0,0c-0.814-0.447-1.598-0.975-2.339-1.599c-3.943-3.326-3.258-7.122,1.476-9.041
			c2.009-0.814,4.034-1.551,6.11-2.179l0,0c0.302-0.853,0.592-1.711,0.857-2.576c0.146-0.474,0.267-0.954,0.39-1.435l0,0
			c-2.083,0.192-4.131,0.601-6.165,1.111c-0.729,1.365-1.457,2.733-2.186,4.095c-0.438-0.106-0.885-0.214-1.332-0.32
			c-0.218-0.906-0.447-1.81-0.671-2.714c-1.465,0.217-2.927,0.465-4.401,0.589c-8.087,0.683-15.354-2.113-22.559-5.29
			c-6.172-2.721-10.938-7.474-16.47-11.113c-1.083-0.713-2.123-1.886-3.676-0.711c1.181,1.126,1.993,2.377,2.655,3.733
			c0.475,0.97,1.144,2.058,0.475,3.029c-0.752,1.092-1.98,0.391-2.973,0.191c-8.639-1.722-16.996-4.212-24.853-8.357
			c-1.304-0.688-2.529-1.478-3.732-2.325c1.615,2.813,9.169,10.222-31.271,16.134c3.179,3.139,6.275,6.357,9.312,9.606
			c14.556,15.575,34.967,22.69,35.999,21.184c-12.884-6.671-24.377-14.994-32.116-27.603c3.891,0.482,7.049,2.474,10.113,4.479
			c7.975,5.22,15.592,10.998,24.298,15.032c11.123,6.045,22.787,10.751,35.2,13.282c3.805,0.775,6.214,2.441,8.108,5.758
			c2.152,3.766,4.208,7.563,5.985,11.484l0,0C263.77,235.433,265.771,234.285,267.743,233.099z M238.287,192.538h-0.013
			c-0.002-0.006-0.003-0.011-0.005-0.017L238.287,192.538z M213.064,205.527c0.22-0.083,0.466-0.115,0.715-0.141
			C213.532,205.412,213.284,205.444,213.064,205.527z M203.118,183.989c18.025,4.095,31.641,14.805,43.104,28.75
			C229.484,206.713,215.216,196.98,203.118,183.989z"/>
		<path fill="#F59D34" d="M308.008,215.008c-0.541-0.408-0.988-0.809-1.358-1.222l-0.001-0.001c-0.775-0.502-1.537-1.03-2.298-1.553
			c-2.71-1.86-5.483-3.508-8.388-4.821c-0.793,7.234-2.595,14.179-5.223,20.715l0,0c0.498,0.535,1.007,1.082,1.544,1.654
			c2.804,2.333,13.735,2.005,4.604-7.021c-1.666-1.647-0.686-5.266-0.277-4.941c0.064-0.145,0.139-0.29,0.229-0.438
			c1.447-2.382,3.879-0.751,5.845-0.313c3.631,0.811,7.103,2.397,10.915,2.283H313.6
			C311.774,217.853,309.886,216.421,308.008,215.008z"/>
		<path fill="#F59D34" d="M274.976,224.028c0.002,0.025,0.008,0.045,0.008,0.068c0.005-0.001,0.009-0.001,0.009-0.001
			L274.976,224.028z"/>
		<path fill="#F59D34" d="M238.287,192.538l-0.018-0.017c0.002,0.006,0.003,0.011,0.005,0.017H238.287z"/>
	</g>
	<path fill-rule="evenodd" clip-rule="evenodd" fill="#F59D34" d="M315.659,103.604c-0.152,0.486-7.838,11.644-31.123,17.508
		c-3.951,0.994-11.131,0.036-11.592-0.103c-4.768-0.412-11.078-4.648-20.578-8.978c-0.208,0.82,10.896,9.729,25.813,11.005
		c2.715,0.231,5.412,0.008,8.076-0.223c9.257-0.799,18.235-3.188,27.139-5.839c24.155-7.201,38.076-1.293,38.553-2.396
		C351.621,114.329,338.379,103.604,315.659,103.604z"/>
	<path fill-rule="evenodd" clip-rule="evenodd" fill="#F59D34" d="M146.616,239.914c1.36,4.85,2.416,9.747,2.213,14.882
		c2.231-7.771,3.891-15.519,1.771-23.535c-0.471-2.223-1.679-4.129-2.656-6.133c-4.979-10.219-11.655-19.375-14.045-32.649
		c-0.025-0.142-0.167,10.901-10.386,0.138c0.659,1.798,1.605,3.951-0.284,5.614c-1.923,1.691-5.206-0.9-5.655-0.716
		c0.889,5.125,3.748,9.188,7.164,12.915C133.054,219.502,141.987,228.107,146.616,239.914"/>
</g>
<g id="Yellow">
	<g>
		<path fill="#FCCE14" d="M264.66,88.155c1.209-0.226,2.529-0.035,4.012-1.336c-12.771-1.569-22.327-8.664-31.979-15.716
			c-0.932-0.68-1.863-1.359-2.798-2.034c-4.379-3.154-8.907-6.181-13.729-8.688c-0.894-0.463-1.797-0.904-2.711-1.332
			c-0.36-0.168-0.721-0.336-1.085-0.498c-0.32-0.143-0.645-0.281-0.969-0.418c-0.78-0.331-1.566-0.651-2.366-0.946l-0.206-0.172
			l-0.243,0.092c-0.48-0.157-0.961-0.313-1.442-0.472c0.99-1.512,2.472-0.654,3.751-0.779c0.638,0.216,1.271,0.442,1.901,0.679
			c0.443,0.166,0.882,0.342,1.32,0.518c0.175,0.069,0.352,0.136,0.525,0.207c0.56,0.229,1.117,0.466,1.671,0.709
			c0.045,0.021,0.091,0.039,0.137,0.059c0.575,0.254,1.146,0.516,1.715,0.783c0.022,0.01,0.047,0.021,0.069,0.031
			c2.657,1.25,5.244,2.636,7.764,4.098c1.954,1.134,3.92,2.236,5.893,3.323c1.327,0.731,2.66,1.452,3.997,2.162
			c0.019,0.011,0.038,0.021,0.057,0.03c1.332,0.708,2.669,1.405,4.011,2.092c0.022,0.012,0.044,0.022,0.066,0.034
			c1.347,0.689,2.699,1.369,4.057,2.037c0.013,0.007,0.025,0.013,0.037,0.02c1.37,0.675,2.746,1.339,4.127,1.993
			c3.054,1.447,6.132,2.849,9.245,4.198c6.419,2.78,12.914,4.935,19.496,6.382l0,0h0.003c1.246,0.273,2.494,0.515,3.746,0.738
			c0.323,0.057,0.647,0.107,0.973,0.161c0.949,0.158,1.899,0.302,2.853,0.43c0.374,0.051,0.748,0.101,1.123,0.146
			c0.969,0.117,1.938,0.217,2.91,0.303c0.313,0.027,0.625,0.062,0.938,0.086c1.291,0.1,2.584,0.178,3.883,0.22h0.002
			c0,0,0.002,0,0.005,0c1.266,0.042,2.535,0.048,3.806,0.034c0.378-0.005,0.756-0.019,1.135-0.027
			c0.913-0.022,1.828-0.057,2.745-0.108c0.437-0.024,0.873-0.052,1.31-0.083c0.91-0.064,1.822-0.147,2.737-0.241
			c0.396-0.041,0.791-0.076,1.188-0.123c1.294-0.15,2.592-0.323,3.893-0.535c0.778-0.126,1.547-0.271,2.31-0.432
			c0.038-0.008,0.073-0.017,0.111-0.024c0.747-0.159,1.487-0.332,2.219-0.521h0.001c8.609-2.225,16.126-6.726,21.344-14.615
			c6.727-10.176,12.901-20.79,24.972-27.22c-6.87,0.303-12.27,1.818-16.979,5.594c-2.92,2.342-6.01,4.483-9.087,6.622
			c-4.327,3.01-8.845,5.636-14.079,6.826c-14.272,3.244-28.222,2.333-41.834-3.126c-2.119-0.851-4.096-0.952-6.113,0.364
			c-1.817,1.187-3.912,1.784-6.06,1.992c-1.673,0.162-3.313-0.265-4.595-1.057v0.001l-0.003-0.003
			c-0.102-0.063-0.193-0.13-0.287-0.195c0.094,0.065,0.186,0.133,0.285,0.194c-0.1-0.062-0.191-0.129-0.285-0.194
			c-0.059-0.04-0.121-0.077-0.178-0.12c-0.129-0.096-0.252-0.198-0.371-0.302c-0.018-0.016-0.037-0.028-0.054-0.044
			c-0.813-0.726-1.377-1.626-1.549-2.606c-0.053-0.301-0.072-0.589-0.074-0.871c-0.001-0.087,0.005-0.173,0.01-0.258
			c0.01-0.198,0.032-0.392,0.068-0.58c0.017-0.088,0.029-0.177,0.051-0.263c0.064-0.244,0.145-0.483,0.255-0.712
			c0.035-0.074,0.086-0.143,0.127-0.215c0.088-0.156,0.183-0.309,0.294-0.456c0.074-0.101,0.158-0.197,0.243-0.293
			c0.103-0.115,0.215-0.226,0.333-0.335c0.101-0.093,0.198-0.188,0.312-0.277c0.211-0.168,0.44-0.33,0.692-0.482
			c0.676-0.409,1.491-0.766,2.463-1.058c2.827-0.851,5.732-1.439,9.163-2.282c-1.764-1.151-3.177-0.972-4.502-0.924
			c-2.855,0.104-5.685,0.424-8.502,0.868c-1.103,0.174-2.203,0.362-3.302,0.57c-5.793,1.097-11.627,1.921-17.533,2.194
			c-4.236,0.196-8.257-0.425-12.161-1.491c0,0,0,0.001-0.001,0.001c-0.016-0.004-0.031-0.01-0.046-0.014
			c-0.572-0.156-1.141-0.322-1.707-0.497c-0.046-0.015-0.092-0.028-0.137-0.044c-0.535-0.165-1.066-0.338-1.596-0.518
			c-0.076-0.026-0.152-0.053-0.229-0.078c-0.499-0.172-0.996-0.349-1.494-0.53c-0.093-0.034-0.187-0.069-0.281-0.104
			c-0.479-0.177-0.956-0.358-1.434-0.545c-0.104-0.039-0.206-0.079-0.309-0.119c-0.47-0.185-0.937-0.371-1.403-0.562
			c-0.108-0.043-0.217-0.087-0.325-0.132c-0.464-0.189-0.928-0.383-1.391-0.577c-0.107-0.045-0.214-0.089-0.321-0.135
			c-0.491-0.207-0.981-0.416-1.471-0.626c-0.072-0.031-0.145-0.063-0.217-0.093c-0.561-0.241-1.121-0.483-1.682-0.726
			c-4.646-2.01-9.307-3.938-14.552-3.269c-0.129-0.03-0.267-0.049-0.403-0.069c-0.211-0.032-0.419-0.067-0.594-0.134h-0.001
			c-0.355-0.135-0.563-0.41-0.308-1.14c5.442-2.398,10.819-1.199,16.187-0.012c0.578,0.128,1.157,0.256,1.735,0.379
			c5.549,1.182,10.819,3.664,16.51,4.073c0.158,0.011,0.314,0.015,0.472,0.025c7.204,0.475,14.195-0.092,20.962-1.675
			c-0.181-1.562-0.493-3.246-0.95-5.106c-0.066-0.267-0.13-0.532-0.194-0.799c-4.383-0.451-8.636-1.631-12.847-3.009
			c-0.009-0.003-0.018-0.006-0.026-0.009c-1.357-0.445-2.712-0.908-4.063-1.377c-0.697-0.241-1.394-0.471-2.091-0.688
			c-0.609-0.19-1.219-0.368-1.829-0.538c-0.06-0.016-0.119-0.035-0.179-0.051c-1.352-0.37-2.707-0.688-4.072-0.943
			c-3.492-0.648-7.042-0.873-10.734-0.39c-4.662,0.609-9.339,1.481-14.091,1.129c-1.035-0.078-2.319,0.172-2.773-1.104
			c-0.485-1.358,0.763-1.851,1.598-2.447c6.366-4.55,13.573-6.65,21.283-7.402c4.284-0.418,8.58-0.217,12.853-0.174
			c-1.936-0.929-3.788-1.807-5.736-2.325c-7.161-1.911-14.368-4.04-21.585-0.274c-1.125,0.586-2.146,0.714-3.332,0.538
			c-2.754-0.408-4.692,0.536-5.883,3.219c-0.887,2.002-2.676,3.38-4.508,4.481c-3.73,2.244-7.753,4.092-9.451,8.577
			c-0.171,0.452-0.71,0.796-1.134,1.114c-3.721,2.798-4.755,6.546-4.522,10.739c0.028,0.525,0.075,1.057,0.141,1.595
			c0.756,6.169,4.444,10.514,8.913,14.401c0.445,0.387,0.887,0.778,1.327,1.17c0.13,0.117,0.259,0.235,0.389,0.353
			c0.313,0.283,0.624,0.566,0.934,0.852c0.146,0.137,0.293,0.273,0.439,0.41c0.309,0.289,0.614,0.581,0.918,0.874
			c0.124,0.121,0.251,0.239,0.374,0.361c0.848,0.828,1.675,1.674,2.476,2.541c0.104,0.114,0.207,0.229,0.311,0.343
			c0.295,0.324,0.587,0.651,0.873,0.981c0.121,0.139,0.24,0.278,0.359,0.418c0.279,0.327,0.555,0.66,0.825,0.995
			c0.104,0.127,0.208,0.253,0.31,0.381c0.363,0.458,0.721,0.921,1.067,1.393c0,0,0.001,0.002,0.002,0.003
			c1.827,2.483,3.412,5.161,4.657,8.112c0.152,0.363,0.294,0.727,0.437,1.089c0.002,0.006,0.004,0.012,0.007,0.019
			c0.173,0.445,0.338,0.891,0.494,1.337c0.018,0.05,0.037,0.101,0.054,0.15c0.147,0.423,0.284,0.844,0.414,1.266
			c0.024,0.076,0.048,0.152,0.07,0.227c0.121,0.401,0.232,0.802,0.337,1.201c0.026,0.099,0.052,0.196,0.076,0.295
			c0.097,0.38,0.185,0.761,0.265,1.142c0.026,0.118,0.051,0.236,0.074,0.354c0.072,0.362,0.137,0.725,0.194,1.087
			c0.023,0.137,0.043,0.273,0.063,0.41c0.05,0.345,0.093,0.69,0.13,1.035c0.016,0.154,0.029,0.308,0.042,0.462
			c0.029,0.329,0.052,0.658,0.067,0.988c0.007,0.168,0.011,0.336,0.016,0.504c0.008,0.316,0.012,0.63,0.007,0.945
			c-0.003,0.183-0.012,0.365-0.02,0.548c-0.012,0.301-0.026,0.601-0.051,0.9c-0.016,0.197-0.039,0.394-0.061,0.591
			c-0.031,0.286-0.063,0.571-0.106,0.856c-0.031,0.21-0.072,0.42-0.111,0.631c-0.049,0.271-0.098,0.543-0.157,0.814
			c-0.051,0.223-0.111,0.445-0.169,0.668c-0.066,0.258-0.13,0.516-0.207,0.771c-0.071,0.238-0.157,0.476-0.238,0.714
			c-0.082,0.24-0.158,0.481-0.249,0.722c-0.1,0.26-0.215,0.519-0.325,0.777c-0.093,0.217-0.178,0.436-0.278,0.65
			c-0.14,0.302-0.3,0.602-0.456,0.901c-0.091,0.173-0.172,0.348-0.268,0.521c-0.263,0.474-0.545,0.944-0.85,1.414
			c-0.397,0.612-0.818,1.21-1.25,1.8c-0.092,0.124-0.183,0.248-0.274,0.37c-0.442,0.59-0.897,1.172-1.373,1.736
			c-0.001,0.002-0.003,0.005-0.005,0.007h-0.001c-8.195,9.744-21.157,15.656-34.452,12.278c-0.005,0.003-0.011,0.006-0.016,0.009
			c-0.111-0.029-0.222-0.066-0.332-0.098c-0.52-0.139-1.039-0.285-1.559-0.452c-0.169-0.055-0.336-0.114-0.504-0.17
			c-0.469-0.16-0.938-0.331-1.407-0.514c-0.201-0.079-0.403-0.159-0.605-0.242c-0.455-0.189-0.912-0.392-1.367-0.604
			c-0.188-0.088-0.374-0.169-0.562-0.261c-0.632-0.308-1.263-0.632-1.892-0.986c-0.351-0.197-0.708-0.381-1.067-0.556
			c-0.079-0.038-0.157-0.075-0.236-0.112c-0.342-0.161-0.687-0.314-1.037-0.454c-0.017-0.007-0.034-0.015-0.051-0.021
			c-0.81-0.319-1.641-0.581-2.499-0.774c-0.777-0.177-1.576-0.305-2.4-0.36c-3.432-0.233-4.079,2.84-5.882,4.862
			c-0.772-9.454,3.016-12.365,11.304-8.88c3.246,1.364,6.239,3.325,9.475,4.72c0.509,0.218,1.021,0.421,1.537,0.606
			c0.036,0.013,0.073,0.022,0.109,0.036c1.518,0.537,3.062,0.925,4.634,1.11c2.051,0.242,4.147,0.146,6.291-0.411
			c0,0-1.602-0.234-3.848-0.807c-0.176-0.045-0.354-0.092-0.537-0.141c-0.113-0.03-0.229-0.063-0.345-0.094
			c-0.113-0.031-0.228-0.063-0.344-0.098c-0.116-0.033-0.233-0.066-0.352-0.101c-0.147-0.043-0.298-0.089-0.447-0.135
			c-0.131-0.038-0.261-0.079-0.393-0.12c-0.183-0.059-0.367-0.118-0.555-0.18c-0.1-0.033-0.199-0.067-0.3-0.102
			c-0.167-0.056-0.335-0.114-0.504-0.175c-0.089-0.032-0.178-0.063-0.268-0.095c-0.244-0.089-0.49-0.182-0.736-0.277
			c-0.075-0.029-0.151-0.061-0.229-0.091c-0.188-0.076-0.379-0.153-0.567-0.231c-0.088-0.037-0.174-0.073-0.261-0.111
			c-0.234-0.1-0.468-0.203-0.699-0.311c-0.03-0.014-0.062-0.027-0.092-0.042c-0.249-0.115-0.495-0.237-0.74-0.36
			c-0.075-0.038-0.149-0.076-0.225-0.115c-0.197-0.103-0.393-0.208-0.587-0.314c-0.061-0.033-0.122-0.066-0.182-0.101
			c-0.244-0.138-0.485-0.28-0.722-0.428c-0.053-0.032-0.104-0.066-0.155-0.1c-0.189-0.12-0.377-0.245-0.561-0.371
			c-0.064-0.045-0.129-0.089-0.193-0.134c-0.224-0.16-0.443-0.321-0.655-0.49c-0.003-0.002-0.005-0.004-0.008-0.006
			c-0.214-0.169-0.419-0.346-0.618-0.523c-0.054-0.05-0.107-0.099-0.16-0.148c-0.159-0.147-0.312-0.297-0.459-0.451
			c-0.04-0.041-0.081-0.082-0.121-0.124c-0.179-0.19-0.349-0.388-0.509-0.589c-0.034-0.042-0.064-0.086-0.098-0.129
			c-0.128-0.165-0.248-0.334-0.362-0.506c-0.039-0.058-0.077-0.117-0.115-0.177c-0.135-0.216-0.265-0.434-0.377-0.66V109.5
			c-0.113-0.225-0.21-0.456-0.299-0.692c-0.025-0.064-0.047-0.131-0.069-0.196c-0.066-0.192-0.124-0.387-0.172-0.585
			c-0.015-0.057-0.031-0.11-0.044-0.167c-0.056-0.248-0.096-0.502-0.123-0.76c-0.006-0.058-0.008-0.118-0.013-0.177
			c-0.018-0.211-0.023-0.425-0.022-0.643c0.001-0.077,0.001-0.153,0.004-0.229c0.012-0.276,0.033-0.557,0.077-0.844
			c2.637,1.896,5.231,3.76,7.825,5.624c-1.799-3.999-5.531-6.576-6.543-11.058c1.502,0.112,1.904,1.269,2.679,1.925
			c3.023,2.561,6.055,5.085,10.007,6.137c1.528,0.407,3.213,0.573,4.136-0.771c0.943-1.373,0.708-3.057-0.587-4.468
			c-0.818,1.066-1.026,2.831-2.951,2.42c-3.166-0.678-5.505-2.51-7.37-5.052c1.817,0.322,3.438,0.994,5.104,1.525
			c1.142,0.363,2.203-0.004,2.705-1.127c0.392-0.879,0.561-2.046-0.129-2.759c-1.114-1.154-1.143,0.715-1.854,0.884
			c-0.806,0.191-1.484-0.053-2.111-0.479c-1.597-1.091-2.845-2.442-3.381-4.415c1.214-0.263,1.681,1.237,2.883,0.672
			c-0.187-0.675-1.921-3.234-1.145-3.83c0.594-0.455,2.682,1.986,3.38,2.475c0.391,0.274,0.783,0.546,1.175,0.816
			c0.105,0.072,0.211,0.143,0.315,0.215c0.305,0.208,0.609,0.416,0.915,0.62c0.101,0.067,0.201,0.134,0.302,0.2
			c0.327,0.217,0.653,0.431,0.982,0.643c0.073,0.049,0.147,0.096,0.222,0.144c0.386,0.246,0.772,0.49,1.162,0.728
			c0.018,0.011,0.035,0.021,0.053,0.032c1.731,1.056,3.503,2.02,5.345,2.831c2.305,1.015,4.72,1.784,7.303,2.186
			c0.344,0.054,0.688,0.105,1.039,0.146c4.254,0.486,7.413-1.017,8.609-4.056c0.11-0.279,0.19-0.571,0.259-0.869
			c0.017-0.07,0.031-0.141,0.046-0.212c0.058-0.3,0.103-0.604,0.121-0.917c0.001-0.02,0-0.037,0.001-0.056
			c0.018-0.305,0.013-0.615-0.006-0.927c-0.004-0.063-0.007-0.124-0.012-0.186c-0.027-0.332-0.07-0.667-0.135-1.001
			c-0.002-0.011-0.006-0.021-0.008-0.032c-0.066-0.336-0.152-0.671-0.255-1.003c-0.011-0.034-0.021-0.068-0.032-0.102
			c-0.224-0.7-0.523-1.384-0.895-2.027c-0.005-0.009-0.011-0.019-0.016-0.027c-0.188-0.325-0.395-0.639-0.618-0.938
			c-0.556-0.748-1.211-1.412-1.956-1.933c-0.394,0.987,0.427,1.59,0.729,2.346c0.106,0.263,0.186,0.518,0.262,0.77
			c0.003-0.004,0.005-0.008,0.007-0.011c0.017,0.052,0.025,0.101,0.04,0.151c0.053,0.186,0.102,0.368,0.14,0.548
			c0.021,0.092,0.03,0.181,0.046,0.271c0.022,0.134,0.047,0.269,0.061,0.398c0.012,0.1,0.016,0.196,0.021,0.294
			c0.008,0.114,0.015,0.23,0.015,0.343c0,0.102-0.006,0.201-0.011,0.3c-0.005,0.101-0.013,0.2-0.024,0.298
			c-0.012,0.103-0.027,0.203-0.047,0.303c-0.015,0.087-0.033,0.171-0.054,0.255c-0.025,0.104-0.054,0.206-0.087,0.306
			c-0.023,0.069-0.05,0.138-0.076,0.205c-0.042,0.106-0.084,0.21-0.134,0.312c-0.025,0.05-0.055,0.098-0.081,0.146
			c-0.062,0.111-0.124,0.223-0.197,0.326c-0.014,0.02-0.028,0.037-0.043,0.056c-0.687,0.95-1.829,1.579-3.365,1.781
			c-0.006,0.001-0.011,0.002-0.017,0.002c-0.219,0.028-0.445,0.048-0.681,0.06c-0.002,0-0.004,0-0.006,0
			c-0.157,0.007-0.311,0.018-0.474,0.017c-2.938-0.021-5.624-0.654-8.097-1.854c-0.003-0.002-0.006-0.004-0.01-0.005
			c-0.472-0.229-0.936-0.481-1.394-0.752c-0.033-0.02-0.065-0.041-0.099-0.061c-0.424-0.256-0.843-0.529-1.254-0.82
			c-0.132-0.094-0.26-0.199-0.39-0.297c-0.319-0.238-0.638-0.478-0.947-0.739c-0.454-0.383-0.901-0.788-1.338-1.224
			c3.305-1.305,3.439-2.435,0.648-5.799c-0.266,3.818-1.808,2.396-3.403,1.064c-4.941-4.126-8.485-9.02-9.095-15.687
			c-0.131-1.45-0.077-3.202-1.724-4.121c-1.131,1.181-0.339,4.539-3.083,2.983c-0.621-0.352-1.244-0.7-1.866-1.057
			c-0.025-0.015-0.051-0.029-0.076-0.045c-2.489-1.426-4.936-2.965-6.933-5.19c-2.876-3.208-4.212-7.687-8.533-9.774
			c-1.428-0.69-3.083-1.007-4.306-1.965c-4.725-3.711-10.107-2.547-15.368-2.24c-0.828,0.049-1.852,0.377-2.141,1.68
			c11.161,0.531,15.613,7.977,17.708,17.958c1.199-1.36,1.533-3.59,3.311-1.473c0.888,1.058,1.101,3.7,3.475,1.564
			c0.05-0.044,0.727,0.412,0.906,0.744c0.726,1.331,1.376,2.681,1.833,4.066c0.001,0.002,0.001,0.004,0.002,0.007
			c0.082,0.25,0.157,0.503,0.227,0.756c0.005,0.02,0.011,0.038,0.015,0.059c0.067,0.25,0.128,0.502,0.18,0.757
			c0.002,0.009,0.005,0.02,0.007,0.03c0.107,0.528,0.181,1.063,0.213,1.606c0.002,0.036,0.002,0.073,0.004,0.11
			c0.01,0.219,0.015,0.439,0.012,0.661c-0.001,0.077-0.005,0.153-0.008,0.23c-0.005,0.187-0.018,0.373-0.035,0.562
			c-0.007,0.088-0.016,0.176-0.026,0.266c-0.021,0.188-0.05,0.379-0.083,0.568c-0.015,0.083-0.026,0.164-0.042,0.246
			c-0.054,0.271-0.116,0.543-0.192,0.818c-0.222,0.793-0.468,2.114-1.525,1.21c-1.262-1.076-3.097-2.794-2.932-3.992
			c0.582-4.222-2.535-4.019-4.772-4.301c-4.165-0.525-7.511-2.372-10.51-5.116c-1.601-1.462-3.223-2.898-4.835-4.346
			c-0.236,0.193-0.471,0.386-0.707,0.58c2.797,4.359,4.317,9.923,9.576,12.162c5.42,2.306,9.108,5.891,11.549,10.627
			c0.001,0.002,0.002,0.002,0.002,0.004c0.352,0.685,0.68,1.394,0.982,2.124c0.006,0.014,0.01,0.027,0.016,0.041
			c0.301,0.729,0.578,1.48,0.83,2.258c0.376,1.164,0.729,2.32,2.392,1.92c0.343-0.083,0.856-0.424,1.088,0.198
			c0.209,0.563-0.018,1.056-0.41,1.457c-1.66,1.692-3.574,1.431-5.679,0.953c-7.046-1.596-11.407,0.896-13.862,7.785
			c-2.427,6.813-2.702,13.933-2.349,20.969c0.027,0.532,0.057,1.064,0.09,1.598c0.493,7.877-0.588,15.136-4.682,21.893
			c-0.992,1.64-0.96,3.123,0.133,4.779c3.542,5.365,7.109,10.743,9.81,16.583c0.603,1.302,1.328,2.157,2.212,2.702
			c0.513,0.315,1.081,0.526,1.712,0.649c0.005,0.001,0.01,0.001,0.015,0.002c0.291,0.057,0.6,0.089,0.92,0.108
			c0.034,0.002,0.064,0.009,0.099,0.01c0.348,0.018,0.712,0.016,1.096-0.004c0.585-0.03,1.166-0.046,1.744-0.046
			c0.068,0,0.136,0.004,0.204,0.004c0.531,0.005,1.059,0.021,1.583,0.059c0.035,0.002,0.071,0.005,0.107,0.008
			c0.561,0.043,1.118,0.104,1.67,0.194c0.007,0.001,0.012,0.002,0.019,0.003c0.548,0.087,1.09,0.205,1.627,0.347
			c0.025,0.007,0.051,0.01,0.075,0.017c-0.002,0.002-0.004,0.004-0.006,0.006c1.455,0.394,2.869,0.999,4.228,1.909
			c0.214,0.143,0.432,0.269,0.643,0.427c0.968,0.728,1.902,1.488,2.821,2.266c0.196,0.165,0.39,0.332,0.584,0.5
			c0.869,0.75,1.726,1.513,2.562,2.295c0.01,0.009,0.021,0.018,0.029,0.026c0.773,0.724,1.536,1.454,2.289,2.196
			c40.44-5.912,32.887-13.321,31.271-16.134c-2.002-1.414-3.938-2.991-6.057-4.54c-0.151,1.423,0.373,2.32-0.022,3.3
			c-0.835,2.066-2.565,2.63-4.414,2.46c-1.861-0.171-1.315-1.875-1.321-3.094c-0.008-2.248,0.167-4.507,0.018-6.745
			c-0.133-1.964-0.395-3.869-0.815-5.7c-0.251-1.092-0.563-2.153-0.938-3.186c-0.021-0.057-0.04-0.115-0.061-0.172
			c-0.11-0.297-0.229-0.591-0.352-0.882c-0.034-0.081-0.066-0.162-0.101-0.243c-0.124-0.288-0.255-0.571-0.391-0.854
			c-0.037-0.077-0.074-0.153-0.112-0.23c-0.142-0.287-0.289-0.57-0.443-0.85c-0.035-0.064-0.071-0.129-0.107-0.194
			c-0.164-0.291-0.333-0.58-0.512-0.864c-0.023-0.038-0.049-0.076-0.074-0.115c-0.192-0.304-0.392-0.604-0.602-0.9h0.001
			c-0.89-1.255-1.935-2.432-3.153-3.525c-0.464-0.418-0.944-0.827-1.461-1.218c-1.372-1.039-2.861-1.35-4.402-0.245
			c-2.06,1.476-2.434,3.639-2.361,5.932c0.053,1.7,0.74,2.993,2.803,3.341c0-1.035-0.11-1.9,0.029-2.724
			c0.169-1.001,0.825-1.121,1.647-0.576c1.517,0.999,2.14,4.879,0.938,6.509c-1.364,1.847-3.01,2.055-5.03,0.856
			c-0.315-0.188-0.615-0.4-0.904-0.629c-0.096-0.075-0.186-0.161-0.278-0.241c-0.187-0.16-0.372-0.324-0.547-0.501
			c-0.103-0.104-0.199-0.214-0.297-0.322c-0.153-0.169-0.301-0.342-0.443-0.521c-0.097-0.124-0.19-0.249-0.283-0.377
			c-0.129-0.181-0.251-0.366-0.371-0.555c-0.087-0.139-0.176-0.277-0.258-0.421c-0.108-0.189-0.207-0.385-0.306-0.582
			c-0.077-0.152-0.159-0.303-0.229-0.459c-0.088-0.194-0.164-0.396-0.242-0.595c-0.149-0.379-0.283-0.764-0.398-1.158
			c-0.035-0.119-0.076-0.237-0.108-0.357c-0.067-0.254-0.121-0.512-0.173-0.77c-0.025-0.116-0.052-0.231-0.072-0.348
			c-0.05-0.271-0.088-0.541-0.12-0.812c-0.012-0.102-0.024-0.203-0.035-0.305c-0.028-0.287-0.049-0.575-0.06-0.862
			c-0.003-0.073-0.004-0.146-0.006-0.22c-0.007-0.314-0.007-0.629,0.009-0.94c0-0.013,0.001-0.024,0.002-0.036
			c0.017-0.339,0.05-0.674,0.092-1.008c0.008-0.056,0.019-0.111,0.026-0.169c0.04-0.285,0.091-0.567,0.15-0.847
			c0.011-0.045,0.021-0.089,0.031-0.135c0.07-0.308,0.153-0.608,0.248-0.905c0.002-0.008,0.005-0.016,0.008-0.024
			c0.386-1.196,0.969-2.295,1.78-3.203c1.279-1.428,3.373-1.303,4.558-2.762c0.817-0.005,1.635-0.009,2.453-0.015
			c0.282-0.019,0.566-0.019,0.851-0.005h0.002c0.094,0.005,0.187,0.019,0.28,0.025c0.012,0.001,0.022,0.003,0.033,0.004
			c0.178,0.015,0.356,0.029,0.535,0.056c0.001,0,0.001,0.001,0.001,0.001c0.108,0.016,0.216,0.038,0.323,0.059
			c0.007,0.001,0.014,0.003,0.02,0.004c0.106,0.021,0.212,0.043,0.318,0.066c0.06,0.013,0.12,0.022,0.18,0.038
			c0.127,0.031,0.253,0.068,0.379,0.105h0.001c0.148,0.043,0.299,0.088,0.447,0.138c0,0,0.001,0,0.002,0.001
			c0.135,0.046,0.27,0.098,0.402,0.149c0.069,0.027,0.138,0.057,0.206,0.085c0.064,0.026,0.129,0.051,0.192,0.079
			c0.141,0.062,0.281,0.128,0.42,0.195c0.003,0.001,0.005,0.002,0.008,0.003c0.09,0.045,0.178,0.092,0.266,0.138
			c0.025,0.014,0.051,0.026,0.075,0.039c0.154,0.083,0.307,0.166,0.456,0.257c0.044,0.025,0.086,0.054,0.13,0.08
			c0.046,0.029,0.092,0.058,0.137,0.086c0.005,0.004,0.011,0.007,0.016,0.01c0.159,0.103,0.318,0.205,0.474,0.315
			c0.002,0.001,0.003,0.002,0.005,0.003c0.036,0.025,0.07,0.053,0.105,0.079c0.019,0.015,0.038,0.029,0.059,0.045
			c0.05,0.036,0.097,0.078,0.146,0.116c0.169,0.129,0.337,0.26,0.498,0.396c0.012,0.011,0.021,0.022,0.034,0.032
			c1.45,1.253,2.571,2.859,3.077,4.611c0,0.002,0.001,0.004,0.002,0.007c0,0.003,0.001,0.005,0.002,0.007
			c0.118,0.416,0.215,0.837,0.261,1.267c0.172,1.611,0.795,4.219,1.05,5.804c0.441-1.466,0.512-3.627,2.056-3.292
			c1.275,0.275,1.313,1.565,1.562,2.577c0.837,3.411,1.674,6.818,3.741,9.674c0-2.392-0.028-4.769,0.012-7.146
			c0.021-1.169-0.043-2.604,1.641-2.599c1.425,0.005,1.432,1.288,1.635,2.357c1.088,5.768,2.878,11.28,6.126,16.304
			c-0.971-8.562-1.501-17.904-0.084-24.704c0.285-1.724,0.781-3.411,1.662-5.025c0.649-1.267,1.408-2.314,2.929-1.746
			c0.111,0.042,0.206,0.097,0.292,0.156c1.105,0.643,0.507,1.927,0.461,2.922c-0.582,12.428,4.347,25.771,8.11,31.263
			c-0.08-0.316-0.146-0.613-0.223-0.924c-0.002-0.003-0.004-0.006-0.007-0.009c-0.003-0.013-0.007-0.025-0.01-0.037
			c0.002,0.002,0.005,0.004,0.007,0.007c-3.414-13.956-2.313-21.865-1.257-32.515c0.104-1.064,0.317-2.033,1.517-2.064
			c1.433-0.035,1.522,1.107,1.669,2.247c1.8,13.962,10.563,25.524,12.458,23.597c-2.872-7.621-3.424-16.898-1.935-29.533
			c0.148-1.261-0.295-3.275,1.422-3.379c1.51-0.091,7.173,37.998,17.771,18.346c-0.519-0.867-1.013-1.742-1.487-2.626
			c-0.143-0.264-0.271-0.534-0.409-0.799c-0.326-0.624-0.652-1.248-0.959-1.881c-0.146-0.302-0.281-0.607-0.423-0.91
			c-0.283-0.604-0.57-1.208-0.839-1.819c-0.133-0.303-0.257-0.608-0.387-0.912c-0.265-0.619-0.53-1.239-0.783-1.866
			c-0.115-0.287-0.224-0.579-0.338-0.868c-0.253-0.648-0.508-1.297-0.751-1.951c-0.099-0.267-0.191-0.535-0.288-0.803
			c-0.25-0.685-0.498-1.371-0.737-2.062c-0.079-0.232-0.156-0.466-0.235-0.699c-0.249-0.733-0.497-1.468-0.738-2.207
			c-0.059-0.182-0.117-0.365-0.175-0.547c-0.26-0.804-0.518-1.609-0.77-2.419c-0.004-0.013-0.009-0.026-0.013-0.04
			c-1.115-3.582-2.176-7.211-3.291-10.852l0.001,0.003l0,0c0,0,0-0.003-0.001-0.004c-0.201-0.655-0.407-1.312-0.612-1.967
			c-0.104-0.33-0.204-0.661-0.309-0.991c-0.157-0.495-0.321-0.989-0.481-1.484c-0.157-0.482-0.31-0.967-0.47-1.45
			c-0.139-0.415-0.285-0.829-0.427-1.244c-0.189-0.558-0.376-1.115-0.572-1.672c-0.342-0.97-0.695-1.937-1.061-2.903
			c2.8,2.836,4.188,5.633,5.616,8.26c2.905,5.352,5.353,10.954,7.931,16.48c3.112,6.669,6.936,12.569,11.636,17.514
			c0,0,21.121,3.116,13.106-9.422c0,0,0,0,0-0.001c-4.716-6.206-11.356-12.466-17.884-20.133c0.018,0.001,0.044,0.016,0.064,0.021
			c-0.063-0.065-0.111-0.112-0.117-0.121c-7.618-9.156-12.41-20.447-22.365-28.746c0.688,0.245,1.34,0.516,1.964,0.803
			c0.239,0.111,0.457,0.236,0.687,0.353c0.369,0.187,0.741,0.369,1.087,0.568c0.278,0.161,0.535,0.334,0.801,0.504
			c0.267,0.17,0.54,0.336,0.795,0.514c0.293,0.205,0.565,0.422,0.842,0.637c0.196,0.152,0.398,0.303,0.587,0.46
			c0.3,0.251,0.583,0.509,0.863,0.771c0.138,0.128,0.279,0.254,0.412,0.384c0.304,0.298,0.595,0.602,0.875,0.908
			c0.089,0.096,0.178,0.189,0.264,0.286c0.308,0.346,0.601,0.696,0.883,1.051c0.043,0.055,0.086,0.108,0.129,0.163
			c0.311,0.396,0.605,0.794,0.888,1.197c0.002,0.002,0.004,0.004,0.006,0.007c2.723,3.895,4.222,8.001,5.909,10.581l0.001,0.001
			c0.002,0.003,0.003,0.006,0.005,0.008c2.408,3.677,4.374,7.688,7.889,10.536l0.011,0.015c0.011,0.005,0.021,0.009,0.031,0.014
			c-0.005-0.021-0.012-0.045-0.008-0.062c9.5,4.329,15.811,8.565,20.578,8.978c0.461,0.139,7.641,1.097,11.592,0.103
			c23.064-5.81,30.819-16.805,31.111-17.485c-2.379-0.059-4.785-0.02-7.227,0.159c-10.112,0.739-20.249,2.753-30.367-0.115
			c-0.659-0.188-1.317-0.376-1.974-0.57c-0.141-0.041-0.281-0.085-0.422-0.127c-0.528-0.157-1.053-0.32-1.575-0.487
			c-0.078-0.024-0.156-0.046-0.233-0.072c0,0-0.004-0.004-0.005-0.006c-3.328-1.081-6.524-2.415-9.286-4.567
			c-2.109-0.49-4.686-0.995-7.879-1.578c1.422-0.783,2.841-1.544,4.26-2.29C259.405,91.203,260.813,88.877,264.66,88.155z
			 M163.04,72.265c2.584,0.953,3.746,3.118,4.84,5.879c-3.396-0.534-4.8-2.463-5.5-5.059
			C162.271,72.684,162.573,72.091,163.04,72.265z"/>
		<path fill="#FCCE14" d="M276.665,36.061c1.43-0.794,3.04-1.467,3.885-3.065c-1.225-0.732-1.997,0.165-2.763,0.592
			c-4.114,2.287-8.591,3.227-13.189,3.813c-2.115,0.27-4.19,0.313-6.237,0.188c0.952,1.64,1.935,3.266,2.903,4.896
			C266.54,40.969,271.678,38.832,276.665,36.061z"/>
		<path fill="#FCCE14" d="M126.099,195.068c0.227,0.178,0.458,0.357,0.699,0.531c1.077,0.779,2.272,1.46,3.368,1.686
			c2.062,0.315,2.981-1.3,3.393-2.746c0.126-0.581,0.21-1.261,0.24-2.063c0.264-6.962,0.219-9.759-0.554-14.607
			c-0.063-3.141-0.488-6.132-1.428-9.016c-0.141-0.435-0.3-0.864-0.464-1.294c-0.05-0.128-0.1-0.257-0.151-0.385
			c-0.146-0.363-0.302-0.725-0.467-1.086c-0.112-0.244-0.232-0.486-0.354-0.729c-0.134-0.268-0.264-0.536-0.407-0.802
			c-0.289-0.53-0.593-1.06-0.928-1.583c-3.989-6.246-6.248-12.83-0.815-19.808c1.637-2.101,4.474-9.804,2.146-17.894
			c-0.554-1.923-1.076-3.846-1.22-5.786c0-0.002-0.001-0.004-0.001-0.006l0,0c-0.158-2.156,0.151-4.335,1.43-6.565
			c1.358-2.372,0.497-5.224-0.445-7.812c-0.78-2.143-1.934-4.046-3.207-5.874c-0.389-0.558-0.788-1.107-1.192-1.654
			c-0.07-0.096-0.141-0.19-0.211-0.285c-0.361-0.488-0.726-0.975-1.088-1.463c-0.343-0.463-0.676-0.928-1.003-1.395
			c-0.1-0.143-0.193-0.286-0.291-0.429c-0.227-0.33-0.451-0.66-0.668-0.994c-0.105-0.164-0.208-0.329-0.313-0.492
			c-0.203-0.32-0.403-0.64-0.598-0.962c-0.101-0.167-0.198-0.335-0.297-0.503c-0.19-0.325-0.376-0.653-0.558-0.982
			c-0.09-0.163-0.179-0.328-0.267-0.492c-0.185-0.347-0.362-0.694-0.535-1.046c-0.074-0.147-0.148-0.295-0.22-0.443
			c-0.187-0.392-0.365-0.786-0.538-1.182c-0.048-0.11-0.099-0.22-0.146-0.331c-1.828-4.314-2.763-8.93-2.35-13.994
			c0.12-1.459,0.079-2.959-1.616-3.436c-1.704-0.479-3.502-0.485-4.606,1.261c-0.735,1.163-1.272,2.461-1.831,3.729
			c-1.037,2.35-1.957,4.752-3.058,7.071c-0.116,0.247-0.255,0.488-0.402,0.725c-0.003,0.005-0.006,0.009-0.008,0.013
			c-0.114,0.183-0.237,0.36-0.368,0.529c-0.016,0.021-0.034,0.041-0.05,0.062c-0.12,0.151-0.244,0.296-0.375,0.432
			c-0.037,0.038-0.078,0.07-0.117,0.107c-0.114,0.113-0.232,0.223-0.355,0.319c-0.062,0.049-0.13,0.086-0.194,0.13
			c-0.105,0.074-0.211,0.15-0.322,0.21c-0.09,0.048-0.184,0.079-0.276,0.117c-0.093,0.039-0.185,0.086-0.279,0.114
			c-0.12,0.035-0.245,0.047-0.369,0.063c-0.074,0.011-0.146,0.032-0.221,0.036c-0.202,0.009-0.407-0.009-0.615-0.055
			c-0.266-0.06-0.503-0.093-0.729-0.114c-0.055-0.006-0.11-0.011-0.164-0.014c-0.216-0.013-0.42-0.016-0.604,0.003
			c-1.796,0.187-2.104,1.85-2.788,3.46c-1.161,2.736-1.645,6.271-4.292,7.695c-1.04,0.56-1.782,1.229-2.367,1.974
			c-0.721,0.915-1.199,1.945-1.648,3.048c-1.367,3.364-2.664,6.779-3.646,10.27c-1.102,3.919-0.988,7.908,0.495,11.834
			c-0.128-2.366,1.089-4.334,1.714-6.451c0.151-0.511,0.303-1.022,0.456-1.534c0.021-0.074,0.044-0.147,0.065-0.22
			c0.157-0.521,0.319-1.044,0.485-1.563c0.02-0.063,0.04-0.124,0.06-0.187c0.172-0.532,0.351-1.063,0.538-1.589
			c0.008-0.021,0.017-0.043,0.025-0.065c0.389-1.083,0.819-2.145,1.317-3.168c0.015-0.033,0.031-0.066,0.047-0.099
			c0.244-0.498,0.506-0.986,0.784-1.463c0.021-0.035,0.042-0.069,0.063-0.104c0.585-0.987,1.251-1.924,2.028-2.79
			c0.001-0.001,0.001-0.002,0.002-0.003c0.49-0.546,1.021-1.065,1.604-1.552c2.691-2.241,5.52-3.988,5.982-7.853
			c0.099-0.83,0.729-2.043,1.937-1.702c1.314,0.369,0.76,1.634,0.622,2.484c-0.575,3.533-2.262,6.674-3.708,9.894
			c-0.298,0.662-0.963,1.182-0.383,2.015c1.859,2.667,1.197,5.598,0.572,8.372c-0.549,2.44-1.22,4.844-1.971,7.223
			c0.001,0.003,0.001,0.007,0.002,0.01c-0.018,0.059-0.039,0.116-0.058,0.176c-0.264,0.832-0.538,1.662-0.821,2.489
			c-0.077,0.223-0.155,0.444-0.232,0.668c-0.233,0.668-0.471,1.334-0.714,1.998c-0.097,0.266-0.193,0.531-0.293,0.796
			c-0.239,0.646-0.484,1.291-0.732,1.935c-0.093,0.241-0.186,0.484-0.279,0.726c-0.336,0.861-0.678,1.723-1.024,2.582
			c-3.519,8.712-5.189,17.7-2.794,27.044c0.685,2.669,1.65,5.257,3.58,7.356c0.304-5.047-0.006-9.92,1.616-14.747
			c0.278-0.83,0.587-1.643,0.912-2.446c0.103-0.254,0.212-0.504,0.318-0.756c0.235-0.557,0.476-1.109,0.728-1.656
			c0.126-0.272,0.252-0.545,0.381-0.815c0.261-0.547,0.528-1.09,0.801-1.63c0.117-0.233,0.233-0.468,0.352-0.699
			c0.372-0.722,0.75-1.441,1.135-2.157c0.013-0.022,0.024-0.047,0.037-0.07c1.063-1.979,2.156-3.941,3.194-5.935
			c1.925-3.697,3.049-7.438,2.226-11.734c-0.543-2.832-0.573-5.802-0.112-9.154c0.548,0.678,0.981,0.966,1.025,1.305
			c1.119,8.738,2.059,17.399-1.257,26.009c-1.19,3.093-2.251,6.215-3.188,9.36c-0.775,2.608-1.461,5.235-2.054,7.88
			c-0.004,0.015-0.007,0.03-0.011,0.046c-0.289,1.289-0.555,2.583-0.799,3.881c-0.018,0.097-0.035,0.194-0.053,0.292
			c-0.229,1.241-0.441,2.485-0.63,3.734c-0.008,0.053-0.017,0.104-0.024,0.157c-0.187,1.246-0.35,2.498-0.493,3.753
			c-0.025,0.21-0.047,0.421-0.07,0.632c-0.129,1.181-0.243,2.365-0.335,3.553c-0.006,0.074-0.014,0.146-0.019,0.22
			c-0.092,1.22-0.157,2.442-0.21,3.668c-0.011,0.282-0.021,0.565-0.031,0.849c-0.042,1.23-0.071,2.463-0.072,3.701
			c-0.001,1.741,0.74,4.689-1.37,4.993c-1.906,0.273-2.341-2.67-2.964-4.408c-0.998-2.788-1.756-5.664-2.846-9.266
			c-1.323,5.647-1.057,10.417,0.039,15.172c0.301,1.305,0.638,2.592,0.998,3.87c0.094,0.333,0.197,0.662,0.295,0.994
			c0.287,0.974,0.584,1.943,0.902,2.902c0.103,0.311,0.21,0.62,0.316,0.93c0.354,1.027,0.72,2.047,1.106,3.059
			c0.076,0.202,0.152,0.405,0.23,0.606c0.473,1.214,0.963,2.42,1.479,3.613c1.5,3.474,3.167,6.867,4.971,10.194
			c0.4-0.346,13.491,5.877,13.917-10.126c0.002-0.177,0.007-0.351,0.007-0.532c0.002-0.226-0.002-0.462-0.005-0.696
			c-0.01-0.498-0.023-1.004-0.053-1.538c-0.006-0.099-0.011-0.195-0.018-0.295c-0.009-0.156-0.017-0.31-0.027-0.469
			c-0.044-0.607-0.093-1.228-0.162-1.883c-0.744-4.378-1.269-8.823-1.521-13.354c-0.302-5.453-1.254-10.9-0.621-16.382
			c0.027-0.238,0.059-0.476,0.087-0.714c0.57-4.769,1.337-9.511,2.104-14.275c0.133-0.824,0.265-1.651,0.397-2.478
			c0.047-0.295,0.094-0.591,0.14-0.886c0.103-0.648,0.203-1.299,0.304-1.949c0.048-0.308,0.096-0.615,0.142-0.923
			c0.108-0.715,0.214-1.431,0.317-2.146c0.031-0.219,0.064-0.438,0.096-0.657c0.131-0.925,0.258-1.852,0.378-2.78
			c0.024-0.189,0.047-0.381,0.071-0.572c0.092-0.731,0.181-1.465,0.265-2.199c0.035-0.31,0.067-0.621,0.102-0.933
			c0.067-0.629,0.132-1.261,0.192-1.893c0.032-0.334,0.063-0.669,0.092-1.003c0.057-0.648,0.107-1.299,0.154-1.95
			c0.022-0.3,0.046-0.599,0.065-0.898c0.062-0.945,0.114-1.892,0.152-2.843c0.95,1.518,0.92,2.823,1.058,4.065
			c0.959,8.658,1.123,17.29,0.216,26c-0.079,0.756-0.136,1.511-0.183,2.265c-0.262,4.256-0.021,8.459,0.632,12.61
			c0.192,1.22,0.419,2.436,0.679,3.647c0.001,0.005,0.001,0.011,0.002,0.014c0.782,3.648,1.858,7.256,3.157,10.827
			c0.008,0.021,0.016,0.045,0.023,0.067c0,0,0.025,0.027,0.062,0.064c0.005,0.006,0.004,0.006,0.01,0.011
			c0.021,0.023,0.06,0.063,0.091,0.095c-0.021-0.056-0.041-0.111-0.062-0.166C124.459,193.611,125.317,194.419,126.099,195.068z"/>
		<path fill="#FCCE14" d="M148.022,197.542c3.18-0.358,4.999-0.031,4.443-7.815c-0.007-0.012-0.013-0.023-0.021-0.036
			c-0.202-0.366-0.396-0.708-0.582-1.038c-0.124-0.221-0.247-0.438-0.364-0.649c-0.06-0.106-0.117-0.215-0.174-0.321
			c-0.095-0.173-0.188-0.347-0.276-0.52c-0.058-0.112-0.114-0.228-0.17-0.34c-0.082-0.166-0.161-0.338-0.239-0.509
			c-0.054-0.116-0.105-0.235-0.156-0.354c-0.074-0.179-0.147-0.365-0.218-0.554c-0.046-0.12-0.091-0.24-0.135-0.364
			c-0.074-0.214-0.143-0.442-0.211-0.673c-0.033-0.113-0.069-0.221-0.101-0.339c-0.098-0.359-0.19-0.737-0.273-1.149
			c-0.053-0.257-0.133-0.5-0.227-0.737c-0.022-0.054-0.044-0.108-0.067-0.161c-0.102-0.232-0.217-0.458-0.355-0.669
			c-0.002-0.004-0.004-0.005-0.006-0.008c-0.141-0.214-0.302-0.413-0.475-0.606c-0.03-0.034-0.061-0.068-0.093-0.102
			c-0.181-0.192-0.374-0.376-0.584-0.546c-0.186-0.15-0.384-0.289-0.588-0.421c-0.353-0.229-0.73-0.431-1.127-0.605
			c-0.01-0.004-0.02-0.009-0.03-0.013c-0.386-0.17-0.791-0.313-1.204-0.432c-0.02-0.005-0.038-0.012-0.058-0.017
			c-0.409-0.115-0.827-0.203-1.247-0.266c-0.021-0.004-0.041-0.008-0.062-0.011c-0.436-0.063-0.872-0.099-1.303-0.105
			c-0.326-0.005-0.624-0.003-0.908,0.004c-0.062,0.002-0.12,0.004-0.179,0.006c-0.576,0.02-1.071,0.066-1.48,0.155
			c-0.011,0.003-0.022,0.006-0.035,0.009c-0.206,0.047-0.393,0.104-0.559,0.173c-1.063,0.448-1.275,1.415-0.791,3.329
			c0.073,0.293,0.157,0.599,0.263,0.938C140.228,188.551,139.506,191.016,148.022,197.542z"/>
	</g>
</g>
<g id="Blue">
	<g>
		<path fill="#6297B2" d="M135.874,269.717c0,0-0.001-0.002-0.001-0.003c-0.299,0.075-0.597,0.152-0.896,0.228
			C135.276,269.866,135.575,269.791,135.874,269.717z"/>
		<path fill="#6297B2" d="M96.282,207.297c-2.212-5.12-4.048-10.42-5.328-15.976c-1.096-4.755-1.362-9.524-0.039-15.172
			c1.09,3.602,1.848,6.478,2.846,9.266c0.623,1.738,1.058,4.682,2.964,4.408c2.11-0.304,1.369-3.252,1.37-4.993
			c0.009-11.103,1.686-21.89,4.805-32.377c-0.451-1.669-0.835-3.382-1.139-5.144c-0.269-1.563-0.516-3.128-0.754-4.695
			c-1.77,3.295-3.455,6.632-4.663,10.23c-1.622,4.827-1.313,9.7-1.616,14.747c-1.93-2.1-2.896-4.688-3.58-7.356
			c-2.396-9.344-0.725-18.332,2.794-27.044c1.516-3.752,2.944-7.527,4.154-11.369c-0.282-1.894-0.577-3.784-0.903-5.67
			c-0.812-4.684-2.077-9.083-3.755-13.221c-3.171,3.533-4.524,8.225-5.871,12.783c-0.625,2.117-1.842,4.085-1.714,6.451
			c-1.483-3.926-1.597-7.915-0.495-11.834c0.982-3.49,2.279-6.905,3.646-10.27c0.449-1.103,0.928-2.133,1.648-3.048
			c-4.788-8.876-11.739-16.372-20.68-22.576c-0.117,0.272-0.215,0.398-0.186,0.447c0.204,0.369,0.438,0.719,0.661,1.079
			c8.788,14.456,10.558,29.873,6.192,46.069c-2.557,9.498-5.521,18.898-8,28.425c-3.694,14.145-1.225,27.122,7.972,38.7
			C82.246,196.249,88.912,202.063,96.282,207.297z"/>
		<path fill="#6297B2" d="M114.912,201.951c0.114,1.091,0.19,2.11,0.234,3.069C115.104,204.059,115.035,203.051,114.912,201.951z"/>
		<path fill="#6297B2" d="M58.083,242.86c6.357-6.533,12.803-7.67,20.91-3.598c2.382,1.206,4.695,2.596,6.912,4.074
			c6.747,4.491,13.231,9.409,20.182,13.551c8.653,5.157,17.684,8.22,26.911,9.247c-5.659-11.859-14.724-21.496-21.878-32.381
			c-0.021-0.033-0.043-0.066-0.064-0.1c-4.07,1.825-8.324,1.104-12.591-0.963c-4.812-2.333-9.526-4.89-14.436-6.999
			c-6.018-2.587-12.094-3.043-17.537,1.497c-5.328,4.452-8.098,10.489-10.295,16.837c0.263,0.233,0.535,0.467,0.797,0.69
			C57.354,244.095,57.597,243.366,58.083,242.86z"/>
		<path fill="#6297B2" d="M169.231,66.364c1.646,0.919,1.593,2.671,1.724,4.121c0.609,6.667,4.153,11.561,9.095,15.687
			c1.596,1.331,3.138,2.754,3.403-1.064c2.791,3.364,2.656,4.494-0.648,5.799c1.675,1.668,3.487,2.954,5.431,3.897
			c2.6-7.131,6.75-13.561,12.693-19.082c0.776-0.722,1.565-1.429,2.362-2.128c-3.019-4.105-6.699-7.679-10.604-11.074
			c-4.469-3.888-8.157-8.232-8.913-14.401c-0.065-0.538-0.112-1.069-0.141-1.595c-10.502,3.235-19.113,8.895-24.936,17.933
			c2.253,2.012,4.881,3.439,7.45,4.892C168.893,70.903,168.101,67.545,169.231,66.364z"/>
		<path fill="#6297B2" d="M167.88,78.144c-1.094-2.761-2.256-4.926-4.84-5.879c-0.467-0.174-0.769,0.419-0.66,0.82
			C163.08,75.681,164.484,77.609,167.88,78.144z"/>
		<path fill="#6297B2" d="M154.43,80.293c0.663-2.371,0.422-4.568-0.271-6.677c-0.886,2.289-1.657,4.599-2.315,6.928
			c0.362,0.35,0.731,0.678,1.062,0.959C153.962,82.407,154.208,81.086,154.43,80.293z"/>
		<path fill="#6297B2" d="M217.895,45.183c4.621,2,9.243,3.987,14.042,5.298c1.766-1.737,3.438-3.549,5.004-5.443
			c-0.157-0.011-0.313-0.015-0.472-0.025c-5.69-0.409-10.961-2.892-16.51-4.073c-2.813-0.599-5.628-1.304-8.451-1.603
			c-3.045,0.824-6.102,1.607-9.163,2.375c0.289,0.109,0.673,0.128,0.998,0.203C208.588,41.245,213.249,43.173,217.895,45.183z"/>
		<path fill="#6297B2" d="M243.911,34.448c1.205-2.409,2.246-4.946,3.086-7.645c1.701-5.443,2.731-11.102,4.063-16.662
			c-0.952-0.155-1.05-0.098-1.099-0.02c-0.583,0.904-1.186,1.779-1.729,2.712c-4.35,7.491-9.898,13.495-16.592,18.008
			c2.75,0.512,5.466,1.28,8.181,2.221C241.182,33.534,242.545,34.001,243.911,34.448z"/>
		<path fill="#6297B2" d="M169.778,121.896c1.83-1.1,3.722-2.146,5.664-3.148c-2.146-0.253-4.242-0.876-6.286-1.754
			c-3.235-1.395-6.229-3.355-9.475-4.72c-0.135-0.057-0.257-0.097-0.39-0.15c-0.826,1.551-1.693,3.065-2.641,4.525
			c1.733,0.392,3.358,1.055,4.899,1.921C164.281,120.107,167.037,121.198,169.778,121.896z"/>
		<path fill="#6297B2" d="M129.047,162.974c1.224,1.915,2.118,3.874,2.771,5.882c0.825-2.348,1.729-4.629,2.699-6.852
			c-1.81-3.021-3.752-5.969-5.693-8.908c-1.093-1.656-1.125-3.14-0.133-4.779c4.094-6.757,5.175-14.016,4.682-21.893
			c-0.033-0.533-0.063-1.065-0.09-1.598c-1.769-1.322-3.208-3.137-4.126-5.346c0.144,1.941,0.667,3.867,1.221,5.792
			c2.327,8.09-0.51,15.793-2.146,17.894C122.799,150.144,125.058,156.728,129.047,162.974z"/>
		<path fill="#6297B2" d="M176.392,92.91c-0.698-0.488-2.786-2.93-3.38-2.475c-0.776,0.596,0.958,3.155,1.145,3.83
			c-1.202,0.565-1.669-0.935-2.883-0.672c0.536,1.973,1.784,3.324,3.381,4.415c0.627,0.427,1.306,0.671,2.111,0.479
			c0.712-0.169,0.74-2.038,1.854-0.884c0.689,0.713,0.521,1.88,0.129,2.759c-0.502,1.123-1.563,1.49-2.705,1.127
			c-1.666-0.531-3.286-1.203-5.104-1.525c1.865,2.542,4.204,4.374,7.37,5.052c1.925,0.411,2.133-1.354,2.951-2.42
			c1.295,1.411,1.53,3.095,0.587,4.468c-0.923,1.344-2.607,1.178-4.136,0.771c-3.952-1.052-6.983-3.576-10.007-6.137
			c-0.774-0.656-1.177-1.813-2.679-1.925c1.012,4.481,4.744,7.059,6.543,11.058c-2.594-1.864-5.188-3.729-7.825-5.624
			c-1.11,7.344,8.528,10.893,14.135,12.322c1.359-0.658,2.738-1.299,4.149-1.911c2.091-0.914,2.8-1.955,2.917-4.18
			c0.232-4.268,0.862-8.377,1.916-12.3C183.168,97.513,179.754,95.267,176.392,92.91z"/>
		<path fill="#6297B2" d="M222.234,58.842c-2.388-1.123-4.831-2.138-7.339-2.985c-1.279,0.125-2.761-0.732-3.751,0.779
			c0.481,0.158,0.962,0.314,1.442,0.472l0.243-0.092l0.206,0.172c2.467,0.91,4.838,2.003,7.148,3.204
			C220.873,59.879,221.558,59.363,222.234,58.842z"/>
		<path fill="#6297B2" d="M155.173,95.119c0.393-0.401,0.619-0.894,0.41-1.457c-0.231-0.622-0.745-0.281-1.088-0.198
			c-1.663,0.4-2.016-0.756-2.392-1.92c-0.51-1.574-1.12-3.048-1.83-4.427c-0.584,2.924-1.032,5.872-1.354,8.843
			c0.192,0.038,0.378,0.067,0.574,0.112C151.599,96.55,153.513,96.812,155.173,95.119z"/>
		<path fill="#6297B2" d="M126.935,99.229c-0.012-0.149-0.022-0.299-0.034-0.449c-0.61-7.342-3.815-12.722-9.054-15.392
			c1.355,4.431,3.697,8.531,6.597,12.438C125.282,96.958,126.133,98.079,126.935,99.229z"/>
		<path fill="#6297B2" d="M100.1,83.886c0.413-0.042,0.904-0.007,1.497,0.125c1.645,0.368,3.085-1.08,3.876-2.657
			c-2.986,0.188-5.952,0.774-8.883,1.659c1.137,0.282,2.274,0.505,3.393,0.835C100.022,83.86,100.061,83.874,100.1,83.886z"/>
		<path fill="#6297B2" d="M119.103,163.182c0.907-8.71,0.743-17.342-0.216-26c-0.138-1.242-0.107-2.548-1.058-4.065
			c-0.327,8.239-1.593,16.204-2.867,24.11c1.107,2.824,2.434,5.562,3.958,8.22C118.967,164.692,119.023,163.938,119.103,163.182z"/>
		<path fill="#6297B2" d="M264.001,57.344c0.229,1.308,1.154,2.474,2.441,3.271c0.737-2.527,0.714-5.25-0.131-8.013
			C264.403,53.757,263.651,55.358,264.001,57.344z"/>
		<path fill="#6297B2" d="M208.385,82.795c-2.189,1.975-4.234,4.077-6.124,6.316c1.813,2.436,2.537,5.802,1.553,8.303
			c-1.196,3.039-4.355,4.542-8.609,4.056c-0.351-0.04-0.695-0.092-1.039-0.146c-1.819,3.546-3.385,7.323-4.659,11.367
			c0.758-0.185,1.05-0.263,1.342-0.34c4.523-1.217,8.99-2.131,13.399-2.742c1.048-1.246,2.02-2.554,2.902-3.913
			C211.918,98.353,211.428,90.571,208.385,82.795z"/>
		<path fill="#6297B2" d="M232.322,67.952c0.525,0.372,1.052,0.741,1.573,1.117c4.333,3.123,8.587,6.354,13.05,9.213
			c1.759-1.227,3.527-2.44,5.297-3.651c-5.543-2.626-10.993-5.416-16.367-8.377C234.69,66.819,233.506,67.386,232.322,67.952z"/>
		<path fill="#6297B2" d="M229.46,98.482c1.474,3.892,2.736,7.811,3.933,11.716c1.308,0.249,2.608,0.534,3.904,0.846
			c-0.716-1.446-1.45-2.883-2.221-4.302C233.648,104.115,232.26,101.318,229.46,98.482z"/>
		<path fill="#6297B2" d="M201.307,90.289c-1.617,2.013-3.121,4.127-4.501,6.353C200.645,96.469,202.413,93.898,201.307,90.289z"/>
		<path fill="#6297B2" d="M247.9,146.421c2.917,4.299,6.098,8.253,9.576,11.813c0.219-0.091,0.439-0.182,0.661-0.27
			c-0.754-5.257-2.315-16.075-2.315-16.075s-1.069-1.102-1.18-1.152c-4.7-4.944-8.523-10.845-11.636-17.514
			c-0.042-0.093-0.084-0.184-0.127-0.275c-2.029-0.715-4.097-1.35-6.197-1.9c2.434,7.81,5.142,15.399,9.332,22.409
			C246.613,144.456,247.237,145.445,247.9,146.421z"/>
		<path fill="#6297B2" d="M147.153,179.632c1.343-2.146,2.86-4.12,4.563-5.9c-2.258-0.608-4.615-0.71-7.029-0.585
			c-1.559,0.081-2.809-0.129-3.843-0.767c-0.706,2.02-1.346,4.067-1.887,6.15c0.688-0.29,1.723-0.368,3.164-0.348
			C143.873,178.209,145.725,178.705,147.153,179.632z"/>
		<path fill="#6297B2" d="M185.619,151.444c-1.788-1.839-2.54-3.937-2.629-5.733c-0.012-0.257-0.039-0.502-0.061-0.75
			c-1.03-0.183-2.061-0.366-3.098-0.549c1.821,2.568,3,5.449,3.707,8.552C184.246,152.48,184.933,151.963,185.619,151.444z"/>
		<path fill="#6297B2" d="M186.374,146.949c-0.136,1.794-0.217,2.85-0.317,4.176c0.478-0.367,0.949-0.743,1.421-1.118
			C187.118,149.016,186.758,147.995,186.374,146.949z"/>
		<path fill="#6297B2" d="M202.645,140.931c0.637,0.112,1.272,0.215,1.908,0.318c0-1.97,0.109-3.947,0.337-5.909
			c-1.396,1.905-1.878,3.366-2.151,4.947C202.702,140.501,202.679,140.716,202.645,140.931z"/>
		<path fill="#6297B2" d="M228.421,134.682c0.53,0.397,1.058,0.798,1.576,1.208c-0.148-0.88-0.276-1.766-0.35-2.665
			c-0.049-0.567-0.433-1.108-1.004-2.499C228.551,132.057,228.477,133.375,228.421,134.682z"/>
		<path fill="#6297B2" d="M149.546,182.881c0.621,3.044,1.599,4.458,2.92,6.846c0.001,0.002,0.002,0.003,0.002,0.003
			c0.352,0.806,0.704,1.518,1.059,2.175c0.999,1.857,2.006,3.242,2.986,4.708c0.15-0.403,0.294-0.81,0.445-1.212
			c0.542-1.436,1.113-2.861,1.676-4.291c-0.862-2.203-1.458-3.985-1.458-3.985c-1.447-3.731-2.463-2.458-4.066-5.064
			c-0.896-1.458-0.09-1.897,1.191-2.046c3.107-0.358,6.072,2.477,6.013,5.643c-0.008,0.408-0.013,0.816-0.018,1.225
			c0.762-1.902,1.526-3.805,2.28-5.721c-1.91-1.787-3.889-3.504-5.996-5.087c-0.211-0.158-0.429-0.284-0.643-0.427
			c-2.793,1.359-5.473,2.931-8.2,4.403C148.647,180.787,149.313,181.733,149.546,182.881z"/>
		<path fill="#6297B2" d="M147.847,225.128c0.976,2.004,2.185,3.909,2.656,6.133c1.179,4.462,1.186,8.84,0.577,13.185
			c3.144,4.473,6.729,8.606,10.7,12.336c14.222,13.357,33.344,21.552,54.547,21.648c33.492,0.166,62.561-20.829,74.413-50.304
			c2.628-6.536,4.43-13.48,5.223-20.715c0.289-2.646,0.448-5.329,0.467-8.045c0.039-5.813-0.544-11.471-1.662-16.943
			c-0.219-1.057-0.458-2.105-0.717-3.146c-0.22-0.884-0.463-1.758-0.711-2.63c-2.119-7.43-5.271-14.418-9.301-20.799
			c-2.409-0.667-4.794-1.443-7.182-2.181c-6.332-1.959-11.782-4.491-16.521-7.959c3.039,6.393,4.725,13.273,6.19,20.267
			c0.006,0.025,0.012,0.05,0.017,0.075c0.909,4.307,1.94,8.587,2.999,12.861c0.422,1.702,0.848,3.404,1.271,5.105
			c0.289,1.155,0.57,2.308,0.855,3.46c0.224,0.904,0.453,1.808,0.671,2.714c0.447,0.106,0.895,0.214,1.332,0.32
			c0.729-1.361,1.457-2.729,2.186-4.095c0.604-1.131,1.206-2.259,1.81-3.391c0.705-1.32,1.408-2.641,2.112-3.962
			c0.854-1.601,1.708-3.2,2.56-4.8c0.498,0.175,0.99,0.358,1.497,0.522c-0.206,1.442-0.402,2.889-0.616,4.329
			c-0.172,1.158-0.354,2.313-0.575,3.453c-0.178,0.926-0.39,1.835-0.622,2.736c-0.123,0.48-0.244,0.961-0.39,1.435
			c-0.266,0.865-0.556,1.724-0.857,2.576c-1.535,4.34-3.473,8.551-5.247,12.818c-0.301,0.722-0.597,1.445-0.884,2.171
			c-0.838,2.122-1.667,4.25-2.498,6.397c-1.022,2.64-2.052,5.316-3.107,8.063c-0.809,2.104-1.632,4.245-2.483,6.451
			c4.148-0.901,7.729-2.475,11.176-4.193c1.089-0.543,2.166-1.1,3.242-1.655c1.91-0.987,3.822-1.969,5.812-2.852
			c-1.321,1.623-2.585,3.286-3.985,4.841c-0.63,0.702-1.283,1.374-1.949,2.026c-1.303,1.28-2.667,2.474-4.084,3.596
			c-1.05,0.832-2.128,1.626-3.228,2.393l-5.797,3.728c-1.972,1.187-3.974,2.334-5.979,3.481c-0.243,0.14-0.486,0.278-0.729,0.418
			c-6.63,3.811-12.979,8.108-19.453,12.19c0.05,0.438,0.107,0.875,0.156,1.313c6.863,1.195,13.735,2.401,21.076,3.685
			c-6.553,2.401-12.939,3.315-19.442,2.896c-5.756-0.359-11.462-1.303-17.198-1.856c-2.322-0.224-4.675-0.106-7.009-0.117
			c-4.044-0.019-8.098-0.01-13.133-0.01c5.239,5.367,10.178,10.432,15.126,15.506c-0.039,0.165-0.088,0.34-0.127,0.506
			c-3.966-1.896-8.359-3.237-11.812-5.823c-6.727-5.046-12.899-10.83-19.364-16.244c-2.372-1.992-4.909-3.801-7.397-5.658
			c-2.032-1.526-4.104-3.004-6.495-4.744c-0.184-0.136-0.378-0.272-0.573-0.417c-0.029,0.311-0.048,0.621-0.058,0.923
			c-0.39,7.193,1.536,13.804,2.965,21.047c-4.015-4.87-6.893-10.004-8.935-15.419c-0.991-2.644-1.798-5.365-2.43-8.155
			c-0.71-3.121-0.846-6.367-1.507-9.508c-0.7-3.324-1.692-6.581-2.586-9.857c-0.363-1.322-0.734-2.646-1.111-3.985
			c-0.123,3.089-0.793,6.976-2.378,12.289c-0.092-6.944-0.805-11.807-2.031-15.516c-3.257,4.665-5.48,9.912-8.265,15.019
			c0.214-2.819-0.038-5.794,0.759-8.448c1.292-4.363,2.697-8.692,4.185-12.993c-1.404-1.864-3.053-3.449-4.903-5.117
			c-0.011-0.004-0.021-0.005-0.033-0.009c-8.517-6.526-8.834-9.942-10.63-15.697c-0.106-0.341-0.19-0.648-0.265-0.942
			c-1.103,5.171-1.689,10.503-1.701,15.938c-0.003,1.52,0.038,3.028,0.117,4.527C139.655,210.271,144.301,217.853,147.847,225.128z"
			/>
		<path fill="#6297B2" d="M170.816,139.424c1.541-1.104,3.03-0.794,4.402,0.245c0.517,0.391,0.997,0.8,1.461,1.218
			c1.676-0.365,3.353-0.635,5.03-0.829c0.479-0.055,0.959-0.105,1.439-0.148c-0.001-0.002-0.002-0.004-0.002-0.007
			c-0.581-2.019-1.98-3.848-3.758-5.163c-0.056-0.041-0.108-0.084-0.164-0.124c-0.162-0.114-0.328-0.222-0.494-0.328
			c-0.088-0.057-0.177-0.113-0.267-0.166c-0.149-0.091-0.302-0.174-0.456-0.257c-0.112-0.061-0.226-0.119-0.341-0.177
			c-0.141-0.069-0.284-0.136-0.428-0.198c-0.132-0.058-0.265-0.111-0.398-0.164c-0.134-0.052-0.269-0.104-0.404-0.15
			c-0.148-0.05-0.299-0.095-0.447-0.138c-0.127-0.037-0.253-0.074-0.38-0.105c-0.165-0.041-0.331-0.072-0.498-0.104
			c-0.114-0.021-0.229-0.047-0.344-0.063c-0.19-0.028-0.379-0.044-0.568-0.06c-0.095-0.007-0.188-0.021-0.282-0.025
			c-0.284-0.014-0.568-0.014-0.851,0.005c-0.641,0.005-1.279,0.008-1.919,0.013c-2.26,1.566-4.432,3.246-6.515,5.027
			c-2.186,4.954-0.422,12.293,4.208,15.038c2.021,1.198,3.666,0.99,5.03-0.856c1.202-1.63,0.579-5.51-0.938-6.509
			c-0.822-0.545-1.479-0.425-1.647,0.576c-0.14,0.823-0.029,1.688-0.029,2.724c-2.063-0.348-2.75-1.641-2.803-3.341
			C168.383,143.063,168.757,140.899,170.816,139.424z"/>
		<path fill="#6297B2" d="M213.923,141.772c0.146-0.001,0.294-0.005,0.439-0.005c0.276,0.001,0.558,0.001,0.835,0.001
			c-0.108-0.842-0.2-1.695-0.25-2.572c-0.01-0.191-0.174-0.373-0.604-1.244C214.175,139.236,214.038,140.508,213.923,141.772z"/>
		<path fill="#6297B2" d="M324.972,182.044c4.899,14.339,5.046,15.825,2.148,20.035c-6.241-6.728-10.528-14.027-12.248-21.066
			c-0.107-0.456-0.204-0.903-0.292-1.36c-1.061-5.493-0.281-10.732,4.248-14.563c1.535-1.3,3.162-2.123,4.843-2.559
			c-7.332-3.377-15.257-4.336-23.352-4.557c-1.279-0.035-2.556,0.011-3.814-0.187c3.128,5.993,5.48,12.196,7.08,18.604
			c0.169,0.679,0.335,1.359,0.488,2.043c0.358,1.608,0.675,3.229,0.94,4.862c1.371,8.408,1.508,17.148,0.458,26.198
			c-0.222,1.897,0.16,3.15,1.178,4.29c0.37,0.413,0.817,0.813,1.358,1.222c1.878,1.413,3.767,2.845,5.592,4.344
			c2.058,1.691,4.034,3.47,5.812,5.417c9.488,10.401,12.045,23.478,13.775,36.94c1.245,9.634,2.614,19.355,5.221,28.678
			c3.703,13.28,14.883,26.744,24.838,31.926c-10.159-18.646-11.569-28.96-6.31-49.89c2.188-8.711,5.064-17.246,7.339-25.937
			c3.753-14.281,1.167-27.308-8.146-38.953C347.594,196.849,336.667,189.149,324.972,182.044z"/>
		<path fill="#6297B2" d="M353.377,157.342c-5.025-3.023-9.905-6.289-14.679-9.691c-13.007-9.295-26.733-16.79-43.221-17.023
			c-5.979-0.087-11.977,0.651-18.324,1.041c2.232,2.621,4.343,4.98,6.328,7.282c2.476,1.267,5.002,2.466,7.574,3.609
			c8.105,3.605,16.726,6.006,24.472,10.426c4.386,2.502,8.406,5.442,11.746,9.182c2.29,0.112,4.637,0.822,6.963,1.971
			c4.978,2.449,9.916,5.006,14.99,7.231c7.165,3.15,13.794,2.08,18.693-2.916c4.259-4.346,6.903-9.662,8.283-15.671
			c-0.942,0.846-1.886,1.683-2.829,2.528C367.211,160.802,360.475,161.619,353.377,157.342z"/>
		<path fill="#6297B2" d="M185.811,336.116c4.696-2.546,9.615-4.695,14.485-6.901c13.64-6.163,25.888-14.135,34.462-26.772
			c3.763-5.542,6.698-11.511,8.321-17.217c-8.351,0.934-16.671,2.353-25.032,2.722c-20.939,0.914-39.604-5.745-56.198-18.324
			c-1.77-1.342-2.849-1.342-4.725-0.408l-0.486,0.232c-4.857,2.363-9.788,4.069-14.784,5.031c0.262,1.626,0.462,3.25,0.452,4.873
			c-0.07,10.663-3.021,20.025-13.144,25.579c-1.269,0.696-2.283,1.938-4.948,2.091c11.948-8.738,13.711-19.779,11.615-31.768
			c-6.392,0.445-12.882-0.344-19.457-2.579c-7.067-2.391-13.989-5.287-20.853-8.243c-13.697-5.9-27.656-9.993-42.715-6.64
			c-5.512,1.225-10.889,3.111-16.322,4.695c0.087,0.34,0.165,0.69,0.253,1.03c0.593,0.059,1.195,0.165,1.788,0.156
			c15.788-0.098,29.35,5.53,40.635,16.39c6.689,6.445,12.939,13.367,19.385,20.064c9.118,9.498,19.86,15.729,33.383,15.398
			c5.483-0.136,10.742-1.011,15.836-2.4l-0.603,0.155c9.945-2.712,19.919-7.583,29.319-12.696
			c-12.997-1.905-16.662-3.52-18.432-8.107c1.926-0.351,3.792-0.816,5.687-0.991c8.06-0.739,16.079-1.128,23.546,2.965
			c5.629,3.082,8.282,9.177,6.475,15.194c-1.322,4.414-4.695,6.979-8.341,9.391c-4.443,2.927-8.914,5.853-13.124,9.109
			c-5.862,4.54-7.854,11.258-4.938,18.091c2.109,4.938,5.201,9.459,7.864,14.174c0.36-0.097,0.72-0.185,1.069-0.282
			c-0.117-0.592-0.232-1.186-0.369-1.779C173.301,347.247,175.721,341.57,185.811,336.116z"/>
		<path fill="#6297B2" d="M320.908,300.332c-0.438-3.383-0.485-6.853-0.271-10.255c0.738-12.085,2.615-24.119,0.885-36.28
			c-1.954-13.658-7.895-25.324-17.246-35.57c-0.292,0.807-0.564,1.39-0.729,2.002c-7.776,28.698-25.178,49.122-52.475,60.973
			c-2.178,0.942-2.956,2.012-3.102,4.403c-0.816,13.416-5.23,25.479-15.291,34.687c-7.098,6.493-14.807,12.335-22.467,18.188
			c-10.402,7.951-19.248,17.129-23.584,29.746c-2.07,6.047-3.306,12.376-4.919,18.578c0.359,0.106,0.72,0.214,1.079,0.321
			c0.447-0.701,0.924-1.381,1.321-2.101c8.031-14.563,20.57-23.175,36.349-27.375c8.672-2.313,17.46-4.189,26.141-6.484
			c12.706-3.354,23.156-9.906,29.494-21.882c4.938-9.343,6.98-19.512,8.001-29.913c0.477-4.813,0.622-9.663,0.963-15.253
			c-9.858,11.229-11.86,12.657-16.333,11.831c0.39-1.128,0.711-2.256,1.148-3.345c3.266-8,7.027-15.66,14.63-20.599
			c8.419-5.474,18.898-0.934,20.221,8.981c0.749,5.619,0.816,11.336,1.302,16.994c0.759,8.904,5.211,14.97,12.521,16.837
			c5.833,1.487,11.695,0.895,17.702-0.856c-1.127-0.301-2.255-0.553-3.373-0.894C326.46,311.113,321.803,307.351,320.908,300.332z"
			/>
		<path fill="#6297B2" d="M256.952,38.256c0.457,1.86,0.77,3.545,0.95,5.106c0.318,2.751,0.181,5.088-0.493,7.158
			c1.409-0.229,2.817-0.479,4.223-0.744c1.099-0.208,2.199-0.396,3.302-0.57c-1.09-2.299-2.361-4.519-3.67-6.722
			c-0.969-1.631-1.951-3.257-2.903-4.896c-0.241-0.415-0.482-0.829-0.718-1.247c-0.351,0.175-0.69,0.34-1.031,0.515
			c0.051,0.2,0.099,0.401,0.146,0.602C256.822,37.724,256.886,37.989,256.952,38.256z"/>
	</g>
	<g>
		<path fill="#6297B2" d="M350.896,113.801c-0.145-0.142-0.288-0.281-0.432-0.424c-4.743-4.688-9.318-9.563-13.923-14.393
			c-5.258-5.51-10.85-10.508-17.669-13.752c-1.516,0.392-3.062,0.722-4.64,0.978c-11.352,1.843-22.417,1.382-33.249-0.999
			c-6.883,2.287-13.469,5.305-20.044,8.762c-1.419,0.746-2.838,1.507-4.26,2.29c3.193,0.583,5.771,1.088,7.88,1.578
			c5.438,1.264,7.741,2.431,9.29,4.573c1.385,0.45,2.793,0.856,4.204,1.257c10.118,2.868,20.255,0.854,30.367,0.115
			c2.441-0.179,4.848-0.218,7.227-0.159c0.003-0.006,0.01-0.019,0.012-0.022C334.896,103.604,347.335,111.29,350.896,113.801z"/>
		<path fill="#6297B2" d="M395.276,133.262c-14.62,0.137-27.765-4.111-38.632-13.998c-1.613-1.468-3.196-2.97-4.761-4.491
			c-0.03-0.029-0.06-0.06-0.09-0.09c-1.594,0.495-15.321-4.587-38.4,2.293c-8.903,2.651-17.882,5.04-27.139,5.839
			c-2.664,0.23-5.361,0.454-8.076,0.223c-14.603-1.248-25.546-9.809-25.804-10.938c-0.01-0.007-0.021-0.013-0.032-0.02l-0.011-0.015
			c-3.515-2.849-5.48-6.859-7.889-10.536c-0.002-0.002-0.003-0.005-0.005-0.008c-1.284-0.937-2.451-2.038-3.352-3.228
			c-1.744-2.292-2.569-4.827-2.559-7.354c-2.404-3.437-5.759-6.707-11.081-8.604c9.955,8.299,14.747,19.59,22.365,28.746
			c0.007,0.009,0.053,0.055,0.117,0.12c0.606,0.608,3.623,3.584,7.157,7.275c0.156,0.081,0.311,0.173,0.466,0.255
			c4.784,2.516,9.479,5.492,14.078,8.97c1.352,1.021,2.207,1.002,3.646,0.272c12.502-6.367,25.616-8.496,39.167-4.297
			c7.748,2.401,15.321,5.474,22.768,8.711c14.758,6.415,29.757,10.439,45.875,6.134c4.521-1.216,8.934-2.849,13.396-4.288
			C395.898,133.369,395.587,133.262,395.276,133.262z"/>
		<path fill="#F59D34" d="M351.946,114.58c-0.049-0.039-0.406-0.324-1.051-0.779c0.299,0.295,0.598,0.59,0.898,0.882
			C351.868,114.66,351.926,114.63,351.946,114.58z"/>
	</g>
	<g>
		<path fill="#6297B2" d="M138.118,242.005c-5.25-8.938-8.605-18.331-10.234-28.073c-0.008-0.043-0.013-0.086-0.02-0.127
			c-1.046-1.123-2.09-2.246-3.126-3.375c-3.416-3.727-6.275-7.79-7.164-12.915c0.449-0.185,3.732,2.407,5.655,0.716
			c1.833-1.613,0.998-3.686,0.345-5.449c-0.095-0.099-0.161-0.169-0.161-0.169c-0.008-0.022-0.016-0.046-0.023-0.067
			c-1.731-4.763-3.068-9.592-3.839-14.492c-2.465-2.025-4.701-4.206-6.693-6.551c-0.028,0.238-0.06,0.476-0.087,0.714
			c-0.633,5.481,0.319,10.929,0.621,16.382c0.252,4.53,0.776,8.976,1.521,13.354c0.689,4.061,1.583,8.06,2.656,12.003
			c0.103,0.376,0.211,0.751,0.316,1.127c3.308,11.749,8.214,23.009,14.23,33.935c3.104,5.637,6.313,11.274,8.155,17.495
			c4.703-0.017,9.443-0.532,14.199-1.573C149.055,257.442,142.892,250.132,138.118,242.005z"/>
		<path fill="#6297B2" d="M126.798,195.6c-0.231-0.167-0.457-0.339-0.675-0.511c0.232,0.191,0.455,0.365,0.674,0.529
			C126.798,195.613,126.798,195.606,126.798,195.6z"/>
		<path fill="#F59D34" d="M126.123,195.089c-0.787-0.652-1.654-1.468-2.609-2.473c0.021,0.054,0.041,0.109,0.061,0.165
			C123.934,193.153,124.9,194.124,126.123,195.089z"/>
	</g>
</g>
</svg>
