<?xml version="1.0" encoding="utf-8"?>
<!-- Generator: Adobe Illustrator 16.0.0, SVG Export Plug-In . SVG Version: 6.00 Build 0)  -->
<!DOCTYPE svg PUBLIC "-//W3C//DTD SVG 1.1//EN" "http://www.w3.org/Graphics/SVG/1.1/DTD/svg11.dtd">
<svg version="1.1" xmlns="http://www.w3.org/2000/svg" xmlns:xlink="http://www.w3.org/1999/xlink" x="0px" y="0px" width="432px"
	 height="576px" viewBox="0 0 432 576" enable-background="new 0 0 432 576" xml:space="preserve">
<g id="Layer_3">
	<rect x="216" fill="#006838" width="216" height="576"/>
	<rect stroke="#000000" stroke-miterlimit="10" width="216" height="576"/>
</g>
<g id="Layer_1">
	<g id="Uppsala">
		
			<rect display="none" fill-rule="evenodd" clip-rule="evenodd" fill="#2A2929" stroke="#2A2929" stroke-miterlimit="10" width="216" height="576"/>
		
			<rect x="216" display="none" fill-rule="evenodd" clip-rule="evenodd" fill="#4D704E" stroke="#2A2929" stroke-miterlimit="10" width="216" height="576"/>
		<g>
			<path fill-rule="evenodd" clip-rule="evenodd" fill="#FFFFFF" stroke="#2A2929" stroke-width="3" stroke-miterlimit="10" d="
				M139.761,364.644c-25.56-25.441-50.909-50.672-76.576-76.232c15.822-15.728,31.656-31.433,47.455-47.16
				c8.383-8.348,16.624-16.836,25.136-25.019c2.334-2.264,2.123-3.678,0.472-6.131c-23.957-35.793-47.82-71.67-71.707-107.512
				c-4.28-6.425-3.997-9.68,0.849-15.728c7.109-8.854,16.128-13.829,27.506-14.796c5.034-0.425,8.5,1.144,11.271,5.47
				c21.269,33.318,42.679,66.542,64.031,99.778c0.743,1.12,1.521,2.204,2.452,3.548c15.268-15.397,30.312-30.606,45.356-45.792
				c15.374,15.385,30.182,30.206,45.249,45.296c0.943-1.227,1.723-2.063,2.323-3.018c21.104-32.776,42.267-65.528,63.135-98.458
				c3.702-5.859,7.947-7.298,14.619-6.52c11.838,1.379,19.983,7.875,26.821,16.753c3.231,4.186,3.055,7.605-0.364,12.721
				c-13.793,20.704-27.601,41.383-41.431,62.074c-10.257,15.374-20.479,30.759-30.735,46.134c-0.531,0.778-0.943,1.627-1.639,2.876
				c25.336,25.136,50.648,50.296,76.116,75.573c-26.021,26.009-51.641,51.57-77.366,77.248
				c10.435,15.469,20.539,30.561,30.735,45.58c14.502,21.363,29.098,42.703,43.623,64.02c3.538,5.21,3.526,7.852-0.601,12.686
				c-6.202,7.263-14.49,11.295-23.355,14.241c-1.038,0.354-2.099,0.59-3.161,0.873c-7.038,1.91-11.022,0.023-14.819-6.012
				c-9.585-15.327-19.335-30.538-29.156-45.674c-10.505-16.177-21.175-32.259-31.786-48.363c-1.049-1.581-2.168-3.113-3.466-4.975
				c-14.796,14.854-29.356,29.497-43.87,44.093c-15.091-15.067-29.899-29.875-45.202-45.155c-2.205,3.349-4.15,6.179-6.037,9.079
				c-18.782,28.79-37.527,57.605-56.273,86.42c-1.026,1.603-2.017,3.23-2.912,4.904c-2.806,5.141-6.992,7.476-12.663,6.178
				c-10.068-2.335-19.524-6.248-26.774-13.842c-6.189-6.508-6.225-8.912-1.745-15.445c24.086-35.063,47.867-70.337,71.742-105.542
				C137.768,367.687,138.488,366.577,139.761,364.644z M278.882,236.064c-0.53,0.425-0.813,0.565-0.943,0.779
				c-11.472,17.189-22.931,34.355-34.25,51.616c-0.625,0.967-0.388,3.112,0.295,4.198c4.668,7.333,9.549,14.524,14.383,21.74
				c6.214,9.338,12.498,18.676,18.759,28.037c0.694-0.4,1.072-0.542,1.345-0.802c15.208-15.209,30.477-30.347,45.579-45.65
				c4.433-4.48,4.138-10.187-0.354-14.855c-4.257-4.386-8.654-8.654-12.97-12.993C300.103,257.427,289.456,246.722,278.882,236.064z
				 M153.909,236.701c-14.738,14.714-29.098,28.979-43.375,43.316c-6.237,6.249-6.237,11.295-0.047,17.473
				c13.735,13.748,27.471,27.494,41.241,41.265c1.015,1.015,2.076,1.981,3.36,3.184c11.33-17.001,22.413-33.578,33.366-50.225
				c0.483-0.779,0.141-2.571-0.413-3.514c-2.641-4.268-5.518-8.395-8.288-12.568C171.205,262.756,162.646,249.882,153.909,236.701z
				 M223.598,181.076c-3.938-3.808-9.478-4.22-13.322-0.589c-8.253,7.853-16.105,16.105-24.216,24.24
				c9.879,15.115,19.724,30.088,29.863,45.556c10.198-15.586,20.232-30.866,30.49-46.476L223.598,181.076z M245.41,374.666
				c-9.855-14.903-19.559-29.499-29.522-44.589c-9.549,14.454-18.687,28.226-27.659,42.09c-0.483,0.755-0.306,2.665,0.342,3.324
				c6.979,7.192,14.042,14.359,21.305,21.316c3.773,3.631,9.526,3.678,13.322,0.023C230.661,389.687,237.817,382.282,245.41,374.666
				z"/>
		</g>
		<path fill-rule="evenodd" clip-rule="evenodd" fill="#DED0C5" stroke="#2A2929" stroke-width="3" stroke-miterlimit="10" d="
			M566.5,252.5"/>
		
			<rect fill-rule="evenodd" clip-rule="evenodd" fill="none" stroke="#2A2929" stroke-width="3" stroke-miterlimit="10" width="432" height="576"/>
	</g>
</g>
</svg>
